<svg width="70" height="85" viewBox="0 0 70 85" fill="none" xmlns="http://www.w3.org/2000/svg">
<path d="M41.25 6.5H61C62.6569 6.5 64 5.15685 64 3.5C64 1.84315 62.6569 0.5 61 0.5H10.5C8.84315 0.5 7.5 1.84315 7.5 3.5C7.5 5.15685 8.84315 6.5 10.5 6.5H28.25C30.8734 6.5 33 8.62665 33 11.25C33 13.8734 30.8734 16 28.25 16H28C25.2386 16 23 18.2386 23 21V23.4293C23 25.6862 21.9741 27.8207 20.2117 29.2306L20.1096 29.3123C18.744 30.4048 17.0472 31 15.2984 31H12.25C9.35051 31 7 33.3505 7 36.25C7 39.1495 9.35051 41.5 12.25 41.5L28.122 41.5C28.6805 41.5 29.2123 41.2612 29.5833 40.8437C30.7778 39.5 33 40.3448 33 42.1427V44.6076C33 46.205 31.705 47.5 30.1076 47.5L1.75 47.5C1.05965 47.5 0.5 48.0596 0.5 48.75C0.5 49.4404 1.05965 50 1.75 50L29.5 50C31.433 50 33 51.567 33 53.5C33 55.433 31.433 57 29.5 57H28C25.2386 57 23 59.2386 23 62V64.6198C23 67.0577 21.8335 69.3483 19.8619 70.7822L19.4845 71.0567C18.1948 71.9947 16.6409 72.5 15.0461 72.5H12.75C9.85051 72.5 7.5 74.8505 7.5 77.75C7.5 80.6495 9.85051 83 12.75 83H26.9144C27.6058 83 28.2651 82.7083 28.7302 82.1967L29.6041 81.2354C30.8041 79.9154 33 80.7644 33 82.5483V82.75C33 83.7165 33.7835 84.5 34.75 84.5C35.7165 84.5 36.5 83.7143 36.5 82.7479C36.5 81.1822 38.3929 80.3929 39.5 81.5L40.341 82.341C40.7629 82.7629 41.3352 83 41.932 83H57.25C60.1495 83 62.5 80.6495 62.5 77.75C62.5 74.8505 60.1495 72.5 57.25 72.5H54.8895C52.732 72.5 50.6759 71.5843 49.2326 69.9806L48.9479 69.6644C47.6939 68.271 47 66.4627 47 64.5882V62.25C47 59.3505 44.6495 57 41.75 57H40C38.067 57 36.5 55.433 36.5 53.5C36.5 51.567 38.067 50 40 50H67.75C68.4404 50 69 49.4404 69 48.75C69 48.0596 68.4404 47.5 67.75 47.5H40C38.067 47.5 36.5 45.933 36.5 44V43.4286C36.5 40.7799 39.5239 39.2679 41.6429 40.8571C42.1992 41.2744 42.876 41.5 43.5714 41.5H57.75C60.6495 41.5 63 39.1495 63 36.25C63 33.3505 60.6495 31 57.75 31H55.2218C53.1589 31 51.1805 30.1805 49.7218 28.7218L48.4675 27.4675C47.2077 26.2077 46.5 24.4991 46.5 22.7175V21C46.5 18.2386 44.2614 16 41.5 16H41.25C38.6266 16 36.5 13.8734 36.5 11.25C36.5 8.62665 38.6266 6.5 41.25 6.5Z" stroke="white"/>
<path d="M57 66C54.2386 66 52 63.7614 52 61C52 58.2386 54.2386 56 57 56C59.7613 56.0001 62 58.2386 62 61C62 63.7614 59.7613 65.9999 57 66Z" stroke="white"/>
<path d="M13 66C10.2386 66 8 63.7614 8 61C8 58.2386 10.2386 56 13 56C15.7613 56.0001 18 58.2386 18 61C18 63.7614 15.7613 65.9999 13 66Z" stroke="white"/>
<path d="M13 26C10.2386 26 8 23.7614 8 21C8 18.2386 10.2386 16 13 16C15.7613 16.0001 18 18.2386 18 21C18 23.7614 15.7613 25.9999 13 26Z" stroke="white"/>
<path d="M56.877 25.793C54.1155 25.793 51.877 23.5544 51.877 20.793C51.877 18.0315 54.1155 15.793 56.877 15.793C59.6383 15.7931 61.877 18.0316 61.877 20.793C61.877 23.5543 59.6383 25.7928 56.877 25.793Z" stroke="white"/>
</svg>
