<svg width="240" height="134" viewBox="0 0 240 134" fill="none" xmlns="http://www.w3.org/2000/svg">
<path d="M25.029 18.5782C20.5318 18.571 16.8411 14.684 16.8478 9.83192C16.8546 4.97986 20.556 1.10444 25.0533 1.11138C29.5507 1.11844 33.2422 5.00548 33.2355 9.85762C33.2287 14.7097 29.5264 18.5852 25.029 18.5782Z" stroke="white"/>
<path d="M24.9314 89.0879C20.4341 89.0808 16.7434 85.1937 16.7502 80.3417C16.7569 75.4896 20.4584 71.6142 24.9557 71.6211C29.453 71.6282 33.1446 75.5153 33.1378 80.3674C33.1311 85.2195 29.4287 89.095 24.9314 89.0879Z" stroke="white"/>
<path d="M94.5779 20.3672C90.0806 20.3601 86.3899 16.473 86.3966 11.621C86.4034 6.76892 90.1049 2.8935 94.6021 2.90045C99.0995 2.9075 102.791 6.79455 102.784 11.6467C102.778 16.4988 99.0752 20.3743 94.5779 20.3672Z" stroke="white"/>
<path d="M94.4802 89.1914C89.9829 89.1843 86.2923 85.2973 86.299 80.4452C86.3057 75.5931 90.0072 71.7177 94.5045 71.7247C99.0018 71.7317 102.693 75.6188 102.687 80.4709C102.68 85.323 98.9775 89.1985 94.4802 89.1914Z" stroke="white"/>
<path d="M149.806 89.2871C145.309 89.28 141.618 85.393 141.625 80.5409C141.632 75.6888 145.333 71.8134 149.831 71.8204C154.328 71.8274 158.02 75.7145 158.013 80.5666C158.006 85.4187 154.304 89.2942 149.806 89.2871Z" stroke="white"/>
<path d="M220.937 89.3946C216.44 89.3874 212.749 85.5004 212.756 80.6483C212.763 75.7963 216.464 71.9208 220.962 71.9278C225.459 71.9348 229.15 75.8219 229.144 80.674C229.137 85.5261 225.435 89.4016 220.937 89.3946Z" stroke="white"/>
<path d="M149.898 18.7754C145.401 18.7683 141.71 14.8812 141.717 10.0292C141.724 5.17712 145.425 1.30171 149.922 1.30865C154.42 1.3157 158.111 5.20275 158.105 10.0549C158.098 14.907 154.396 18.7825 149.898 18.7754Z" stroke="white"/>
<path d="M219.453 18.8848C214.956 18.8776 211.265 14.9906 211.272 10.1386C211.278 5.2865 214.98 1.41108 219.477 1.41802C223.974 1.42508 227.666 5.31213 227.659 10.1643C227.653 15.0164 223.95 18.8919 219.453 18.8848Z" stroke="white"/>
<path d="M181.547 8.54295L181.554 3.065C181.556 1.75552 182.619 0.695633 183.929 0.697687C185.238 0.69974 186.298 1.76296 186.296 3.07244L186.288 8.94556C186.285 11.3463 188.228 13.2955 190.629 13.2993C193.03 13.303 194.973 15.2523 194.97 17.653L194.961 24.0684C194.958 26.4692 193.009 28.4123 190.608 28.4085C188.207 28.4048 186.258 30.3479 186.255 32.7486L186.253 34.2775C186.248 37.5227 188.876 40.1575 192.121 40.1626L217.739 40.2027C222.606 40.2104 226.547 44.1626 226.54 49.0303L226.533 54.2875C226.53 56.2517 228.12 57.8465 230.084 57.8496C232.049 57.8527 233.643 56.2629 233.646 54.2986L233.667 39.2902C233.668 38.4172 234.377 37.7106 235.25 37.712C236.123 37.7134 236.829 38.4222 236.828 39.2952L236.813 49.8858C236.804 56.6079 231.347 62.0486 224.625 62.0381L197.078 61.9949C191.515 61.9862 186.999 66.4888 186.991 72.0519L186.982 78.173C186.979 80.3555 188.746 82.1275 190.929 82.131C193.111 82.1344 194.878 83.9064 194.875 86.0889L194.864 94.1341C194.861 96.3166 193.089 98.083 190.906 98.0796C188.724 98.0762 186.952 99.8427 186.949 102.025L186.947 103.53C186.943 106.543 189.382 108.989 192.396 108.994L216.804 109.032C222.135 109.041 226.451 113.369 226.443 118.701L226.436 124.007C226.433 126.408 228.376 128.357 230.777 128.361C233.177 128.364 235.126 126.421 235.13 124.021L235.149 110.198C235.15 109.106 236.036 108.223 237.128 108.225C238.219 108.227 239.102 109.113 239.101 110.204L239.086 120.819C239.076 127.773 233.431 133.401 226.477 133.39L16.9762 133.062C9.55879 133.05 3.55414 127.028 3.56446 119.61L3.58148 107.365C3.58239 106.711 4.1139 106.181 4.76864 106.182C5.42338 106.183 5.95342 106.714 5.95251 107.369L5.92876 124.452C5.92603 126.416 7.51613 128.011 9.48036 128.014C11.4446 128.017 13.0391 126.427 13.0419 124.463L13.0503 118.366C13.0577 113.035 17.3856 108.72 22.7169 108.728L50.3353 108.771C52.885 108.775 54.9549 106.712 54.9584 104.162C54.962 101.612 52.8979 99.542 50.3481 99.538L49.8276 99.5372C46.9904 99.5327 44.6936 97.2291 44.6975 94.3919L44.7077 87.0389C44.7117 84.2017 47.0149 81.9053 49.8521 81.9097C52.6893 81.9142 54.9925 79.6178 54.9965 76.7805L55.0033 71.8449C55.0111 66.2819 50.5076 61.765 44.9445 61.7563L12.6549 61.7057C5.93289 61.6951 0.491163 56.2373 0.500508 49.5152L0.515231 38.9246C0.516445 38.0516 1.22513 37.345 2.09813 37.3464C2.97112 37.3477 3.67783 38.0566 3.67662 38.9295L3.6574 52.7525C3.65376 55.3714 5.7739 57.4979 8.39287 57.502C11.0118 57.5061 13.1379 55.3863 13.1415 52.7673L13.1472 48.6957C13.154 43.828 17.1055 39.8881 21.9732 39.8958L49.1719 39.9384C52.417 39.9435 55.0513 37.3169 55.0559 34.0718L55.0569 33.3332C55.0608 30.496 52.764 28.1924 49.9268 28.1879C47.0896 28.1835 44.7928 25.8798 44.7967 23.0426L44.8034 18.2078C44.8074 15.3706 47.1106 13.0742 49.9478 13.0787C52.785 13.0831 55.0882 10.7867 55.0922 7.94948L55.0987 3.26187C55.1008 1.73415 56.341 0.49761 57.8687 0.500006C59.3965 0.502402 60.6332 1.74282 60.6311 3.27055L60.6251 7.56298C60.6209 10.6184 63.0944 13.0993 66.1498 13.1041C69.2053 13.1089 71.6788 15.5897 71.6746 18.6452L71.6689 22.6896C71.6647 25.7451 69.1843 28.2181 66.1288 28.2133C63.0734 28.2085 60.593 30.6816 60.5887 33.7371L60.5883 34.0805C60.5838 37.3256 63.2108 39.9604 66.4559 39.9655L92.8643 40.0069C97.7319 40.0146 101.673 43.9668 101.666 48.8345L101.658 54.0917C101.656 56.0559 103.246 57.6507 105.21 57.6538C107.174 57.6569 108.769 56.067 108.772 54.1028L108.792 39.0944C108.794 38.2214 109.502 37.5148 110.375 37.5162C111.248 37.5175 111.955 38.2263 111.954 39.0993L111.939 49.69C111.93 56.412 106.473 61.8528 99.7508 61.8423L70.6226 61.7966C65.0595 61.7879 60.5435 66.2905 60.5358 71.8536L60.5294 76.394C60.5252 79.4495 62.9987 81.9303 66.0542 81.9351C69.1096 81.9399 71.5831 84.4208 71.5789 87.4762L71.5697 94.0389C71.5655 97.0943 69.0851 99.5674 66.0297 99.5626L65.114 99.5612C62.5642 99.5572 60.4944 101.621 60.4908 104.171C60.4873 106.72 62.5514 108.791 65.1011 108.795L91.9292 108.837C97.2604 108.845 101.576 113.174 101.569 118.505L101.56 124.602C101.558 126.566 103.148 128.161 105.112 128.164C107.076 128.167 108.671 126.577 108.674 124.613L108.693 110.444C108.694 109.571 109.403 108.864 110.276 108.865C111.149 108.867 111.856 109.576 111.855 110.449L111.843 119.085C111.836 124.105 115.899 128.181 120.919 128.188C125.939 128.196 130.014 124.133 130.02 119.114L130.033 110.082C130.034 109.427 130.565 108.897 131.22 108.898C131.875 108.899 132.405 109.431 132.404 110.086L132.384 124.65C132.381 126.614 133.971 128.209 135.935 128.212C137.9 128.215 139.494 126.625 139.497 124.661L139.505 118.564C139.513 113.233 143.841 108.918 149.172 108.926L175.951 108.968C178.964 108.973 181.41 106.534 181.415 103.521L181.416 102.807C181.419 100.188 179.299 98.0614 176.68 98.0573C174.061 98.0532 171.941 95.9268 171.945 93.3078L171.954 86.8433C171.957 84.2243 174.083 82.1045 176.702 82.1086C179.321 82.1128 181.447 79.993 181.451 77.374L181.458 72.0432C181.466 66.4802 176.963 61.9633 171.4 61.9546L138.32 61.9027C131.598 61.8922 126.156 56.4344 126.165 49.7123L126.181 38.7265C126.181 38.0717 126.713 37.5418 127.368 37.5428C128.022 37.5438 128.552 38.0754 128.552 38.7302L128.533 52.1579C128.529 55.2134 131.002 57.6942 134.058 57.699C137.113 57.7038 139.593 55.2308 139.598 52.1753L139.602 48.894C139.609 44.0263 143.561 40.0864 148.428 40.0941L175.627 40.1367C178.872 40.1418 181.506 37.5152 181.511 34.2701L181.513 33.1363C181.516 30.5174 179.396 28.3909 176.777 28.3868C174.158 28.3827 172.038 26.2563 172.042 23.6373L172.049 18.0122C172.053 15.3932 174.179 13.2735 176.798 13.2776C179.417 13.2817 181.543 11.1619 181.547 8.54295Z" stroke="white"/>
</svg>
