<svg width="834" height="827" viewBox="0 0 834 827" fill="none" xmlns="http://www.w3.org/2000/svg">
<path d="M100 50.2513C101.005 39.6386 113.074 40.0063 113.498 50.8037" stroke="white"/>
<path d="M77 51.2764C77.1754 40.6177 89.2362 40.0448 90.5 50.7764" stroke="white"/>
<path d="M90.2904 86.4095C89.0024 96.9915 76.9478 96.3013 76.8121 85.4964" stroke="white"/>
<path d="M112.826 85.5723C112.824 96.2325 100.775 97.0023 99.3357 86.2927" stroke="white"/>
<path d="M52.9902 83C55.113 96.6759 64.7284 94.185 66.9902 85" stroke="white"/>
<path d="M68.0059 52.2461C62.4056 39.5901 53.7665 44.4918 53.9666 53.9491" stroke="white"/>
<path d="M126 52.541C131.504 39.4138 139.471 44.1741 139.082 53.8641" stroke="white"/>
<path d="M139.281 82.3965C136.884 96.4274 128.047 93.5891 126.239 84.0614" stroke="white"/>
<path d="M47.9994 82.4988V81.9989M47.9994 81.9989C47.6812 80.2107 47.427 78.5574 47.2316 76.9948C46.4735 70.9338 46.0944 67.9034 48.0947 63.3545C49.0732 61.1292 51.7499 57.7353 53.6859 56.265C57.6434 53.2598 61.7216 52.8061 69.8781 51.8989C92.2252 49.4132 109.723 49.9608 132.611 53.0295C132.839 53.0601 132.269 52.9837 132.657 53.0531C139.691 54.3117 147.118 62.7597 147.465 69.8968C147.484 70.2904 147.468 66.8412 147.474 68.2209C147.481 69.5221 147.465 66.2691 147.449 66.6658C147.171 73.7514 139.605 82.4343 132.624 83.6795C132.233 83.7493 133.07 83.6379 132.735 83.6824C103.443 87.5842 82.7683 87.2602 47.9994 81.9989Z" stroke="white"/>
<path d="M46.9956 75C35.0007 73.5 35.002 62.5 46.9956 61" stroke="white"/>
<path d="M147.299 61.0009C159.26 62.7572 159.023 73.7547 147 74.9977" stroke="white"/>
<path d="M24.5 50.24V109.26C24.5 120.703 24.5 126.424 27.0066 130.663C28.55 133.272 30.7276 135.45 33.3373 136.993C37.5758 139.5 43.2972 139.5 54.74 139.5H93.5C94.6046 139.5 95.5 140.395 95.5 141.5C95.5 142.605 94.6046 143.5 93.5 143.5H50.24C38.7972 143.5 33.0758 143.5 28.8373 140.993C26.2276 139.45 24.05 137.272 22.5066 134.663C20 130.424 20 124.703 20 113.26V45.74C20 34.2972 20 28.5758 22.5066 24.3373C24.05 21.7276 26.2276 19.55 28.8373 18.0066C33.0758 15.5 38.7972 15.5 50.24 15.5H146.26C157.703 15.5 163.424 15.5 167.663 18.0066C170.272 19.55 172.45 21.7276 173.993 24.3373C176.5 28.5758 176.5 34.2972 176.5 45.74V128C176.5 136.56 169.56 143.5 161 143.5H147.5C146.395 143.5 145.5 142.605 145.5 141.5C145.5 140.395 146.395 139.5 147.5 139.5H159C166.456 139.5 172.5 133.456 172.5 126V50.24C172.5 38.7972 172.5 33.0758 169.993 28.8373C168.45 26.2276 166.272 24.05 163.663 22.5066C159.424 20 153.703 20 142.26 20H54.74C43.2972 20 37.5758 20 33.3373 22.5066C30.7276 24.05 28.55 26.2276 27.0066 28.8373C24.5 33.0758 24.5 38.7972 24.5 50.24Z" stroke="white"/>
<path d="M574 50.2513C575.005 39.6386 587.074 40.0063 587.498 50.8037" stroke="white"/>
<path d="M551 51.2764C551.175 40.6177 563.236 40.0448 564.5 50.7764" stroke="white"/>
<path d="M564.29 86.4095C563.002 96.9915 550.948 96.3013 550.812 85.4964" stroke="white"/>
<path d="M586.826 85.5723C586.824 96.2325 574.775 97.0023 573.336 86.2927" stroke="white"/>
<path d="M526.99 83C529.113 96.6759 538.728 94.185 540.99 85" stroke="white"/>
<path d="M542.006 52.2461C536.406 39.5901 527.766 44.4918 527.967 53.9491" stroke="white"/>
<path d="M600 52.541C605.504 39.4138 613.471 44.1741 613.082 53.8641" stroke="white"/>
<path d="M613.281 82.3965C610.884 96.4274 602.047 93.5891 600.239 84.0614" stroke="white"/>
<path d="M521.999 82.4988V81.9989M521.999 81.9989C521.681 80.2107 521.427 78.5574 521.232 76.9948C520.473 70.9338 520.094 67.9034 522.095 63.3545C523.073 61.1292 525.75 57.7353 527.686 56.265C531.643 53.2598 535.722 52.8061 543.878 51.8989C566.225 49.4132 583.723 49.9608 606.611 53.0295C606.839 53.0601 606.269 52.9837 606.657 53.0531C613.691 54.3117 621.118 62.7597 621.465 69.8968C621.484 70.2904 621.468 66.8412 621.474 68.2209C621.481 69.5221 621.465 66.2691 621.449 66.6658C621.171 73.7514 613.605 82.4343 606.624 83.6795C606.233 83.7493 607.07 83.6379 606.735 83.6824C577.443 87.5842 556.768 87.2602 521.999 81.9989Z" stroke="white"/>
<path d="M520.996 75C509.001 73.5 509.002 62.5 520.996 61" stroke="white"/>
<path d="M621.299 61.0009C633.26 62.7572 633.023 73.7547 621 74.9977" stroke="white"/>
<path d="M498.5 50.24V109.26C498.5 120.703 498.5 126.424 501.007 130.663C502.55 133.272 504.728 135.45 507.337 136.993C511.576 139.5 517.297 139.5 528.74 139.5H567.5C568.605 139.5 569.5 140.395 569.5 141.5C569.5 142.605 568.605 143.5 567.5 143.5H524.24C512.797 143.5 507.076 143.5 502.837 140.993C500.228 139.45 498.05 137.272 496.507 134.663C494 130.424 494 124.703 494 113.26V45.74C494 34.2972 494 28.5758 496.507 24.3373C498.05 21.7276 500.228 19.55 502.837 18.0066C507.076 15.5 512.797 15.5 524.24 15.5H620.26C631.703 15.5 637.424 15.5 641.663 18.0066C644.272 19.55 646.45 21.7276 647.993 24.3373C650.5 28.5758 650.5 34.2972 650.5 45.74V128C650.5 136.56 643.56 143.5 635 143.5H621.5C620.395 143.5 619.5 142.605 619.5 141.5C619.5 140.395 620.395 139.5 621.5 139.5H633C640.456 139.5 646.5 133.456 646.5 126V50.24C646.5 38.7972 646.5 33.0758 643.993 28.8373C642.45 26.2276 640.272 24.05 637.663 22.5066C633.424 20 627.703 20 616.26 20H528.74C517.297 20 511.576 20 507.337 22.5066C504.728 24.05 502.55 26.2276 501.007 28.8373C498.5 33.0758 498.5 38.7972 498.5 50.24Z" stroke="white"/>
<path d="M416 50.2513C417.005 39.6386 429.074 40.0063 429.498 50.8037" stroke="white"/>
<path d="M393 51.2764C393.175 40.6177 405.236 40.0448 406.5 50.7764" stroke="white"/>
<path d="M406.29 86.4095C405.002 96.9915 392.948 96.3013 392.812 85.4964" stroke="white"/>
<path d="M428.826 85.5723C428.824 96.2325 416.775 97.0023 415.336 86.2927" stroke="white"/>
<path d="M368.99 83C371.113 96.6759 380.728 94.185 382.99 85" stroke="white"/>
<path d="M384.006 52.2461C378.406 39.5901 369.766 44.4918 369.967 53.9491" stroke="white"/>
<path d="M442 52.541C447.504 39.4138 455.471 44.1741 455.082 53.8641" stroke="white"/>
<path d="M455.281 82.3965C452.884 96.4274 444.047 93.5891 442.239 84.0614" stroke="white"/>
<path d="M363.999 82.4988V81.9989M363.999 81.9989C363.681 80.2107 363.427 78.5574 363.232 76.9948C362.473 70.9338 362.094 67.9034 364.095 63.3545C365.073 61.1292 367.75 57.7353 369.686 56.265C373.643 53.2598 377.722 52.8061 385.878 51.8989C408.225 49.4132 425.723 49.9608 448.611 53.0295C448.839 53.0601 448.269 52.9837 448.657 53.0531C455.691 54.3117 463.118 62.7597 463.465 69.8968C463.484 70.2904 463.468 66.8412 463.474 68.2209C463.481 69.5221 463.465 66.2691 463.449 66.6658C463.171 73.7514 455.605 82.4343 448.624 83.6795C448.233 83.7493 449.07 83.6379 448.735 83.6824C419.443 87.5842 398.768 87.2602 363.999 81.9989Z" stroke="white"/>
<path d="M362.996 75C351.001 73.5 351.002 62.5 362.996 61" stroke="white"/>
<path d="M463.299 61.0009C475.26 62.7572 475.023 73.7547 463 74.9977" stroke="white"/>
<path d="M340.5 50.24V109.26C340.5 120.703 340.5 126.424 343.007 130.663C344.55 133.272 346.728 135.45 349.337 136.993C353.576 139.5 359.297 139.5 370.74 139.5H409.5C410.605 139.5 411.5 140.395 411.5 141.5C411.5 142.605 410.605 143.5 409.5 143.5H366.24C354.797 143.5 349.076 143.5 344.837 140.993C342.228 139.45 340.05 137.272 338.507 134.663C336 130.424 336 124.703 336 113.26V45.74C336 34.2972 336 28.5758 338.507 24.3373C340.05 21.7276 342.228 19.55 344.837 18.0066C349.076 15.5 354.797 15.5 366.24 15.5H462.26C473.703 15.5 479.424 15.5 483.663 18.0066C486.272 19.55 488.45 21.7276 489.993 24.3373C492.5 28.5758 492.5 34.2972 492.5 45.74V128C492.5 136.56 485.56 143.5 477 143.5H463.5C462.395 143.5 461.5 142.605 461.5 141.5C461.5 140.395 462.395 139.5 463.5 139.5H475C482.456 139.5 488.5 133.456 488.5 126V50.24C488.5 38.7972 488.5 33.0758 485.993 28.8373C484.45 26.2276 482.272 24.05 479.663 22.5066C475.424 20 469.703 20 458.26 20H370.74C359.297 20 353.576 20 349.337 22.5066C346.728 24.05 344.55 26.2276 343.007 28.8373C340.5 33.0758 340.5 38.7972 340.5 50.24Z" stroke="white"/>
<path d="M258 50.2513C259.005 39.6386 271.074 40.0063 271.498 50.8037" stroke="white"/>
<path d="M235 51.2764C235.175 40.6177 247.236 40.0448 248.5 50.7764" stroke="white"/>
<path d="M248.29 86.4095C247.002 96.9915 234.948 96.3013 234.812 85.4964" stroke="white"/>
<path d="M270.826 85.5723C270.824 96.2325 258.775 97.0023 257.336 86.2927" stroke="white"/>
<path d="M210.99 83C213.113 96.6759 222.728 94.185 224.99 85" stroke="white"/>
<path d="M226.006 52.2461C220.406 39.5901 211.766 44.4918 211.967 53.9491" stroke="white"/>
<path d="M284 52.541C289.504 39.4138 297.471 44.1741 297.082 53.8641" stroke="white"/>
<path d="M297.281 82.3965C294.884 96.4274 286.047 93.5891 284.239 84.0614" stroke="white"/>
<path d="M205.999 82.4988V81.9989M205.999 81.9989C205.681 80.2107 205.427 78.5574 205.232 76.9948C204.473 70.9338 204.094 67.9034 206.095 63.3545C207.073 61.1292 209.75 57.7353 211.686 56.265C215.643 53.2598 219.722 52.8061 227.878 51.8989C250.225 49.4132 267.723 49.9608 290.611 53.0295C290.839 53.0601 290.269 52.9837 290.657 53.0531C297.691 54.3117 305.118 62.7597 305.465 69.8968C305.484 70.2904 305.468 66.8412 305.474 68.2209C305.481 69.5221 305.465 66.2691 305.449 66.6658C305.171 73.7514 297.605 82.4343 290.624 83.6795C290.233 83.7493 291.07 83.6379 290.735 83.6824C261.443 87.5842 240.768 87.2602 205.999 81.9989Z" stroke="white"/>
<path d="M204.996 75C193.001 73.5 193.002 62.5 204.996 61" stroke="white"/>
<path d="M305.299 61.0009C317.26 62.7572 317.023 73.7547 305 74.9977" stroke="white"/>
<path d="M182.5 50.24V109.26C182.5 120.703 182.5 126.424 185.007 130.663C186.55 133.272 188.728 135.45 191.337 136.993C195.576 139.5 201.297 139.5 212.74 139.5H251.5C252.605 139.5 253.5 140.395 253.5 141.5C253.5 142.605 252.605 143.5 251.5 143.5H208.24C196.797 143.5 191.076 143.5 186.837 140.993C184.228 139.45 182.05 137.272 180.507 134.663C178 130.424 178 124.703 178 113.26V45.74C178 34.2972 178 28.5758 180.507 24.3373C182.05 21.7276 184.228 19.55 186.837 18.0066C191.076 15.5 196.797 15.5 208.24 15.5H304.26C315.703 15.5 321.424 15.5 325.663 18.0066C328.272 19.55 330.45 21.7276 331.993 24.3373C334.5 28.5758 334.5 34.2972 334.5 45.74V128C334.5 136.56 327.56 143.5 319 143.5H305.5C304.395 143.5 303.5 142.605 303.5 141.5C303.5 140.395 304.395 139.5 305.5 139.5H317C324.456 139.5 330.5 133.456 330.5 126V50.24C330.5 38.7972 330.5 33.0758 327.993 28.8373C326.45 26.2276 324.272 24.05 321.663 22.5066C317.424 20 311.703 20 300.26 20H212.74C201.297 20 195.576 20 191.337 22.5066C188.728 24.05 186.55 26.2276 185.007 28.8373C182.5 33.0758 182.5 38.7972 182.5 50.24Z" stroke="white"/>
<path d="M733 50.2513C734.005 39.6386 746.074 40.0063 746.498 50.8037" stroke="white"/>
<path d="M710 51.2764C710.175 40.6177 722.236 40.0448 723.5 50.7764" stroke="white"/>
<path d="M723.29 86.4095C722.002 96.9915 709.948 96.3013 709.812 85.4964" stroke="white"/>
<path d="M745.826 85.5723C745.824 96.2325 733.775 97.0023 732.336 86.2927" stroke="white"/>
<path d="M685.99 83C688.113 96.6759 697.728 94.185 699.99 85" stroke="white"/>
<path d="M701.006 52.2461C695.406 39.5901 686.766 44.4918 686.967 53.9491" stroke="white"/>
<path d="M759 52.541C764.504 39.4138 772.471 44.1741 772.082 53.8641" stroke="white"/>
<path d="M772.281 82.3965C769.884 96.4274 761.047 93.5891 759.239 84.0614" stroke="white"/>
<path d="M680.999 82.4988V81.9989M680.999 81.9989C680.681 80.2107 680.427 78.5574 680.232 76.9948C679.473 70.9338 679.094 67.9034 681.095 63.3545C682.073 61.1292 684.75 57.7353 686.686 56.265C690.643 53.2598 694.722 52.8061 702.878 51.8989C725.225 49.4132 742.723 49.9608 765.611 53.0295C765.839 53.0601 765.269 52.9837 765.657 53.0531C772.691 54.3117 780.118 62.7597 780.465 69.8968C780.484 70.2904 780.468 66.8412 780.474 68.2209C780.481 69.5221 780.465 66.2691 780.449 66.6658C780.171 73.7514 772.605 82.4343 765.624 83.6795C765.233 83.7493 766.07 83.6379 765.735 83.6824C736.443 87.5842 715.768 87.2602 680.999 81.9989Z" stroke="white"/>
<path d="M679.996 75C668.001 73.5 668.002 62.5 679.996 61" stroke="white"/>
<path d="M780.299 61.0009C792.26 62.7572 792.023 73.7547 780 74.9977" stroke="white"/>
<path d="M657.5 50.24V109.26C657.5 120.703 657.5 126.424 660.007 130.663C661.55 133.272 663.728 135.45 666.337 136.993C670.576 139.5 676.297 139.5 687.74 139.5H726.5C727.605 139.5 728.5 140.395 728.5 141.5C728.5 142.605 727.605 143.5 726.5 143.5H683.24C671.797 143.5 666.076 143.5 661.837 140.993C659.228 139.45 657.05 137.272 655.507 134.663C653 130.424 653 124.703 653 113.26V45.74C653 34.2972 653 28.5758 655.507 24.3373C657.05 21.7276 659.228 19.55 661.837 18.0066C666.076 15.5 671.797 15.5 683.24 15.5H779.26C790.703 15.5 796.424 15.5 800.663 18.0066C803.272 19.55 805.45 21.7276 806.993 24.3373C809.5 28.5758 809.5 34.2972 809.5 45.74V128C809.5 136.56 802.56 143.5 794 143.5H780.5C779.395 143.5 778.5 142.605 778.5 141.5C778.5 140.395 779.395 139.5 780.5 139.5H792C799.456 139.5 805.5 133.456 805.5 126V50.24C805.5 38.7972 805.5 33.0758 802.993 28.8373C801.45 26.2276 799.272 24.05 796.663 22.5066C792.424 20 786.703 20 775.26 20H687.74C676.297 20 670.576 20 666.337 22.5066C663.728 24.05 661.55 26.2276 660.007 28.8373C657.5 33.0758 657.5 38.7972 657.5 50.24Z" stroke="white"/>
<path d="M809 774.324V706.564C809 704.355 807.209 702.564 805 702.564H804C802.619 702.564 801.5 703.684 801.5 705.064V705.814C801.5 706.781 802.284 707.564 803.25 707.564C804.216 707.564 805 708.348 805 709.314V769.324C805 780.767 805 786.489 802.493 790.727C800.95 793.337 798.772 795.514 796.163 797.058C791.924 799.564 786.203 799.564 774.76 799.564H704.24C692.797 799.564 687.076 799.564 682.837 797.058C680.228 795.514 678.05 793.337 676.507 790.727C674 786.489 674 780.767 674 769.324V719.064C674 712.713 679.149 707.564 685.5 707.564H694.5C695.881 707.564 697 706.445 697 705.064C697 703.684 695.881 702.564 694.5 702.564H683C675.268 702.564 669 708.832 669 716.564V774.324C669 785.767 669 791.489 671.507 795.727C673.05 798.337 675.228 800.514 677.837 802.058C682.076 804.564 687.797 804.564 699.24 804.564H778.76C790.203 804.564 795.924 804.564 800.163 802.058C802.772 800.514 804.95 798.337 806.493 795.727C809 791.489 809 785.767 809 774.324Z" stroke="white"/>
<path d="M755.729 707.5H775.479C777.135 707.5 778.479 706.157 778.479 704.5C778.479 702.843 777.135 701.5 775.479 701.5H724.979C723.322 701.5 721.979 702.843 721.979 704.5C721.979 706.157 723.322 707.5 724.979 707.5H742.729C745.352 707.5 747.479 709.627 747.479 712.25C747.479 714.873 745.352 717 742.729 717H742.479C739.717 717 737.479 719.239 737.479 722V724.429C737.479 726.686 736.453 728.821 734.69 730.231L734.588 730.312C733.222 731.405 731.526 732 729.777 732H726.729C723.829 732 721.479 734.351 721.479 737.25C721.479 740.149 723.829 742.5 726.729 742.5H742.6C743.159 742.5 743.691 742.261 744.062 741.844C745.256 740.5 747.479 741.345 747.479 743.143V745.608C747.479 747.205 746.184 748.5 744.586 748.5H716.229C715.538 748.5 714.979 749.06 714.979 749.75C714.979 750.44 715.538 751 716.229 751H743.979C745.912 751 747.479 752.567 747.479 754.5C747.479 756.433 745.912 758 743.979 758H742.479C739.717 758 737.479 760.239 737.479 763V765.62C737.479 768.058 736.312 770.348 734.34 771.782L733.963 772.057C732.673 772.995 731.119 773.5 729.525 773.5H727.229C724.329 773.5 721.979 775.851 721.979 778.75C721.979 781.649 724.329 784 727.229 784H741.393C742.084 784 742.744 783.708 743.209 783.197L744.083 782.235C745.283 780.915 747.479 781.764 747.479 783.548V783.75C747.479 784.716 748.262 785.5 749.229 785.5C750.195 785.5 750.979 784.714 750.979 783.748C750.979 782.182 752.871 781.393 753.979 782.5L754.82 783.341C755.241 783.763 755.814 784 756.41 784H771.729C774.628 784 776.979 781.649 776.979 778.75C776.979 775.851 774.628 773.5 771.729 773.5H769.368C767.21 773.5 765.154 772.584 763.711 770.981L763.426 770.664C762.172 769.271 761.479 767.463 761.479 765.588V763.25C761.479 760.351 759.128 758 756.229 758H754.479C752.546 758 750.979 756.433 750.979 754.5C750.979 752.567 752.546 751 754.479 751H782.229C782.919 751 783.479 750.44 783.479 749.75C783.479 749.06 782.919 748.5 782.229 748.5H754.479C752.546 748.5 750.979 746.933 750.979 745V744.429C750.979 741.78 754.002 740.268 756.121 741.857C756.678 742.274 757.354 742.5 758.05 742.5H772.229C775.128 742.5 777.479 740.149 777.479 737.25C777.479 734.351 775.128 732 772.229 732H769.7C767.637 732 765.659 731.181 764.2 729.722L762.946 728.468C761.686 727.208 760.979 725.499 760.979 723.718V722C760.979 719.239 758.74 717 755.979 717H755.729C753.105 717 750.979 714.873 750.979 712.25C750.979 709.627 753.105 707.5 755.729 707.5Z" stroke="white"/>
<path d="M773.535 767.734C770.774 767.734 768.535 765.496 768.535 762.734C768.535 759.973 770.774 757.734 773.535 757.734C776.296 757.734 778.535 759.973 778.535 762.734C778.535 765.496 776.296 767.734 773.535 767.734Z" stroke="white"/>
<path d="M729.6 770.076C726.838 770.076 724.6 767.838 724.6 765.076C724.6 762.315 726.838 760.076 729.6 760.076C732.361 760.076 734.6 762.315 734.6 765.076C734.6 767.838 732.361 770.076 729.6 770.076Z" stroke="white"/>
<path d="M727.418 729.133C724.657 729.133 722.418 726.894 722.418 724.133C722.418 721.371 724.657 719.133 727.418 719.133C730.179 719.133 732.418 721.371 732.418 724.133C732.418 726.894 730.179 729.133 727.418 729.133Z" stroke="white"/>
<path d="M771.355 726.793C768.594 726.793 766.355 724.554 766.355 721.793C766.355 719.032 768.594 716.793 771.355 716.793C774.117 716.793 776.355 719.032 776.355 721.793C776.355 724.554 774.117 726.793 771.355 726.793Z" stroke="white"/>
<path d="M683.457 707.5V760.258C683.457 765.781 678.98 770.258 673.457 770.258" stroke="white"/>
<path d="M683 724.5H674" stroke="white"/>
<path d="M683.707 740.244H678.707H673.707" stroke="white"/>
<path d="M683 755.723H674.531" stroke="white"/>
<path d="M666 774.324V706.564C666 704.355 664.209 702.564 662 702.564H661C659.619 702.564 658.5 703.684 658.5 705.064V705.814C658.5 706.781 659.284 707.564 660.25 707.564C661.216 707.564 662 708.348 662 709.314V769.324C662 780.767 662 786.489 659.493 790.727C657.95 793.337 655.772 795.514 653.163 797.058C648.924 799.564 643.203 799.564 631.76 799.564H561.24C549.797 799.564 544.076 799.564 539.837 797.058C537.228 795.514 535.05 793.337 533.507 790.727C531 786.489 531 780.767 531 769.324V719.064C531 712.713 536.149 707.564 542.5 707.564H551.5C552.881 707.564 554 706.445 554 705.064C554 703.684 552.881 702.564 551.5 702.564H540C532.268 702.564 526 708.832 526 716.564V774.324C526 785.767 526 791.489 528.507 795.727C530.05 798.337 532.228 800.514 534.837 802.058C539.076 804.564 544.797 804.564 556.24 804.564H635.76C647.203 804.564 652.924 804.564 657.163 802.058C659.772 800.514 661.95 798.337 663.493 795.727C666 791.489 666 785.767 666 774.324Z" stroke="white"/>
<path d="M612.729 707.5H632.479C634.135 707.5 635.479 706.157 635.479 704.5C635.479 702.843 634.135 701.5 632.479 701.5H581.979C580.322 701.5 578.979 702.843 578.979 704.5C578.979 706.157 580.322 707.5 581.979 707.5H599.729C602.352 707.5 604.479 709.627 604.479 712.25C604.479 714.873 602.352 717 599.729 717H599.479C596.717 717 594.479 719.239 594.479 722V724.429C594.479 726.686 593.453 728.821 591.69 730.231L591.588 730.312C590.222 731.405 588.526 732 586.777 732H583.729C580.829 732 578.479 734.351 578.479 737.25C578.479 740.149 580.829 742.5 583.729 742.5H599.6C600.159 742.5 600.691 742.261 601.062 741.844C602.256 740.5 604.479 741.345 604.479 743.143V745.608C604.479 747.205 603.184 748.5 601.586 748.5H573.229C572.538 748.5 571.979 749.06 571.979 749.75C571.979 750.44 572.538 751 573.229 751H600.979C602.912 751 604.479 752.567 604.479 754.5C604.479 756.433 602.912 758 600.979 758H599.479C596.717 758 594.479 760.239 594.479 763V765.62C594.479 768.058 593.312 770.348 591.34 771.782L590.963 772.057C589.673 772.995 588.119 773.5 586.525 773.5H584.229C581.329 773.5 578.979 775.851 578.979 778.75C578.979 781.649 581.329 784 584.229 784H598.393C599.084 784 599.744 783.708 600.209 783.197L601.083 782.235C602.283 780.915 604.479 781.764 604.479 783.548V783.75C604.479 784.716 605.262 785.5 606.229 785.5C607.195 785.5 607.979 784.714 607.979 783.748C607.979 782.182 609.871 781.393 610.979 782.5L611.82 783.341C612.241 783.763 612.814 784 613.41 784H628.729C631.628 784 633.979 781.649 633.979 778.75C633.979 775.851 631.628 773.5 628.729 773.5H626.368C624.21 773.5 622.154 772.584 620.711 770.981L620.426 770.664C619.172 769.271 618.479 767.463 618.479 765.588V763.25C618.479 760.351 616.128 758 613.229 758H611.479C609.546 758 607.979 756.433 607.979 754.5C607.979 752.567 609.546 751 611.479 751H639.229C639.919 751 640.479 750.44 640.479 749.75C640.479 749.06 639.919 748.5 639.229 748.5H611.479C609.546 748.5 607.979 746.933 607.979 745V744.429C607.979 741.78 611.002 740.268 613.121 741.857C613.678 742.274 614.354 742.5 615.05 742.5H629.229C632.128 742.5 634.479 740.149 634.479 737.25C634.479 734.351 632.128 732 629.229 732H626.7C624.637 732 622.659 731.181 621.2 729.722L619.946 728.468C618.686 727.208 617.979 725.499 617.979 723.718V722C617.979 719.239 615.74 717 612.979 717H612.729C610.105 717 607.979 714.873 607.979 712.25C607.979 709.627 610.105 707.5 612.729 707.5Z" stroke="white"/>
<path d="M630.535 767.734C627.774 767.734 625.535 765.496 625.535 762.734C625.535 759.973 627.774 757.734 630.535 757.734C633.296 757.734 635.535 759.973 635.535 762.734C635.535 765.496 633.296 767.734 630.535 767.734Z" stroke="white"/>
<path d="M586.6 770.076C583.838 770.076 581.6 767.838 581.6 765.076C581.6 762.315 583.838 760.076 586.6 760.076C589.361 760.076 591.6 762.315 591.6 765.076C591.6 767.838 589.361 770.076 586.6 770.076Z" stroke="white"/>
<path d="M584.418 729.133C581.657 729.133 579.418 726.894 579.418 724.133C579.418 721.371 581.657 719.133 584.418 719.133C587.179 719.133 589.418 721.371 589.418 724.133C589.418 726.894 587.179 729.133 584.418 729.133Z" stroke="white"/>
<path d="M628.355 726.793C625.594 726.793 623.355 724.554 623.355 721.793C623.355 719.032 625.594 716.793 628.355 716.793C631.117 716.793 633.355 719.032 633.355 721.793C633.355 724.554 631.117 726.793 628.355 726.793Z" stroke="white"/>
<path d="M540.457 707.5V760.258C540.457 765.781 535.98 770.258 530.457 770.258" stroke="white"/>
<path d="M540 724.5H531" stroke="white"/>
<path d="M540.707 740.244H535.707H530.707" stroke="white"/>
<path d="M540 755.723H531.531" stroke="white"/>
<path d="M523 774.324V706.564C523 704.355 521.209 702.564 519 702.564H518C516.619 702.564 515.5 703.684 515.5 705.064V705.814C515.5 706.781 516.284 707.564 517.25 707.564C518.216 707.564 519 708.348 519 709.314V769.324C519 780.767 519 786.489 516.493 790.727C514.95 793.337 512.772 795.514 510.163 797.058C505.924 799.564 500.203 799.564 488.76 799.564H418.24C406.797 799.564 401.076 799.564 396.837 797.058C394.228 795.514 392.05 793.337 390.507 790.727C388 786.489 388 780.767 388 769.324V719.064C388 712.713 393.149 707.564 399.5 707.564H408.5C409.881 707.564 411 706.445 411 705.064C411 703.684 409.881 702.564 408.5 702.564H397C389.268 702.564 383 708.832 383 716.564V774.324C383 785.767 383 791.489 385.507 795.727C387.05 798.337 389.228 800.514 391.837 802.058C396.076 804.564 401.797 804.564 413.24 804.564H492.76C504.203 804.564 509.924 804.564 514.163 802.058C516.772 800.514 518.95 798.337 520.493 795.727C523 791.489 523 785.767 523 774.324Z" stroke="white"/>
<path d="M469.729 707.5H489.479C491.135 707.5 492.479 706.157 492.479 704.5C492.479 702.843 491.135 701.5 489.479 701.5H438.979C437.322 701.5 435.979 702.843 435.979 704.5C435.979 706.157 437.322 707.5 438.979 707.5H456.729C459.352 707.5 461.479 709.627 461.479 712.25C461.479 714.873 459.352 717 456.729 717H456.479C453.717 717 451.479 719.239 451.479 722V724.429C451.479 726.686 450.453 728.821 448.69 730.231L448.588 730.312C447.222 731.405 445.526 732 443.777 732H440.729C437.829 732 435.479 734.351 435.479 737.25C435.479 740.149 437.829 742.5 440.729 742.5H456.6C457.159 742.5 457.691 742.261 458.062 741.844C459.256 740.5 461.479 741.345 461.479 743.143V745.608C461.479 747.205 460.184 748.5 458.586 748.5H430.229C429.538 748.5 428.979 749.06 428.979 749.75C428.979 750.44 429.538 751 430.229 751H457.979C459.912 751 461.479 752.567 461.479 754.5C461.479 756.433 459.912 758 457.979 758H456.479C453.717 758 451.479 760.239 451.479 763V765.62C451.479 768.058 450.312 770.348 448.34 771.782L447.963 772.057C446.673 772.995 445.119 773.5 443.525 773.5H441.229C438.329 773.5 435.979 775.851 435.979 778.75C435.979 781.649 438.329 784 441.229 784H455.393C456.084 784 456.744 783.708 457.209 783.197L458.083 782.235C459.283 780.915 461.479 781.764 461.479 783.548V783.75C461.479 784.716 462.262 785.5 463.229 785.5C464.195 785.5 464.979 784.714 464.979 783.748C464.979 782.182 466.871 781.393 467.979 782.5L468.82 783.341C469.241 783.763 469.814 784 470.41 784H485.729C488.628 784 490.979 781.649 490.979 778.75C490.979 775.851 488.628 773.5 485.729 773.5H483.368C481.21 773.5 479.154 772.584 477.711 770.981L477.426 770.664C476.172 769.271 475.479 767.463 475.479 765.588V763.25C475.479 760.351 473.128 758 470.229 758H468.479C466.546 758 464.979 756.433 464.979 754.5C464.979 752.567 466.546 751 468.479 751H496.229C496.919 751 497.479 750.44 497.479 749.75C497.479 749.06 496.919 748.5 496.229 748.5H468.479C466.546 748.5 464.979 746.933 464.979 745V744.429C464.979 741.78 468.002 740.268 470.121 741.857C470.678 742.274 471.354 742.5 472.05 742.5H486.229C489.128 742.5 491.479 740.149 491.479 737.25C491.479 734.351 489.128 732 486.229 732H483.7C481.637 732 479.659 731.181 478.2 729.722L476.946 728.468C475.686 727.208 474.979 725.499 474.979 723.718V722C474.979 719.239 472.74 717 469.979 717H469.729C467.105 717 464.979 714.873 464.979 712.25C464.979 709.627 467.105 707.5 469.729 707.5Z" stroke="white"/>
<path d="M487.535 767.734C484.774 767.734 482.535 765.496 482.535 762.734C482.535 759.973 484.774 757.734 487.535 757.734C490.296 757.734 492.535 759.973 492.535 762.734C492.535 765.496 490.296 767.734 487.535 767.734Z" stroke="white"/>
<path d="M443.6 770.076C440.838 770.076 438.6 767.838 438.6 765.076C438.6 762.315 440.838 760.076 443.6 760.076C446.361 760.076 448.6 762.315 448.6 765.076C448.6 767.838 446.361 770.076 443.6 770.076Z" stroke="white"/>
<path d="M441.418 729.133C438.657 729.133 436.418 726.894 436.418 724.133C436.418 721.371 438.657 719.133 441.418 719.133C444.179 719.133 446.418 721.371 446.418 724.133C446.418 726.894 444.179 729.133 441.418 729.133Z" stroke="white"/>
<path d="M485.355 726.793C482.594 726.793 480.355 724.554 480.355 721.793C480.355 719.032 482.594 716.793 485.355 716.793C488.117 716.793 490.355 719.032 490.355 721.793C490.355 724.554 488.117 726.793 485.355 726.793Z" stroke="white"/>
<path d="M397.457 707.5V760.258C397.457 765.781 392.98 770.258 387.457 770.258" stroke="white"/>
<path d="M397 724.5H388" stroke="white"/>
<path d="M397.707 740.244H392.707H387.707" stroke="white"/>
<path d="M397 755.723H388.531" stroke="white"/>
<path d="M380 774.324V706.564C380 704.355 378.209 702.564 376 702.564H375C373.619 702.564 372.5 703.684 372.5 705.064V705.814C372.5 706.781 373.284 707.564 374.25 707.564C375.216 707.564 376 708.348 376 709.314V769.324C376 780.767 376 786.489 373.493 790.727C371.95 793.337 369.772 795.514 367.163 797.058C362.924 799.564 357.203 799.564 345.76 799.564H275.24C263.797 799.564 258.076 799.564 253.837 797.058C251.228 795.514 249.05 793.337 247.507 790.727C245 786.489 245 780.767 245 769.324V719.064C245 712.713 250.149 707.564 256.5 707.564H265.5C266.881 707.564 268 706.445 268 705.064C268 703.684 266.881 702.564 265.5 702.564H254C246.268 702.564 240 708.832 240 716.564V774.324C240 785.767 240 791.489 242.507 795.727C244.05 798.337 246.228 800.514 248.837 802.058C253.076 804.564 258.797 804.564 270.24 804.564H349.76C361.203 804.564 366.924 804.564 371.163 802.058C373.772 800.514 375.95 798.337 377.493 795.727C380 791.489 380 785.767 380 774.324Z" stroke="white"/>
<path d="M326.729 707.5H346.479C348.135 707.5 349.479 706.157 349.479 704.5C349.479 702.843 348.135 701.5 346.479 701.5H295.979C294.322 701.5 292.979 702.843 292.979 704.5C292.979 706.157 294.322 707.5 295.979 707.5H313.729C316.352 707.5 318.479 709.627 318.479 712.25C318.479 714.873 316.352 717 313.729 717H313.479C310.717 717 308.479 719.239 308.479 722V724.429C308.479 726.686 307.453 728.821 305.69 730.231L305.588 730.312C304.222 731.405 302.526 732 300.777 732H297.729C294.829 732 292.479 734.351 292.479 737.25C292.479 740.149 294.829 742.5 297.729 742.5H313.6C314.159 742.5 314.691 742.261 315.062 741.844C316.256 740.5 318.479 741.345 318.479 743.143V745.608C318.479 747.205 317.184 748.5 315.586 748.5H287.229C286.538 748.5 285.979 749.06 285.979 749.75C285.979 750.44 286.538 751 287.229 751H314.979C316.912 751 318.479 752.567 318.479 754.5C318.479 756.433 316.912 758 314.979 758H313.479C310.717 758 308.479 760.239 308.479 763V765.62C308.479 768.058 307.312 770.348 305.34 771.782L304.963 772.057C303.673 772.995 302.119 773.5 300.525 773.5H298.229C295.329 773.5 292.979 775.851 292.979 778.75C292.979 781.649 295.329 784 298.229 784H312.393C313.084 784 313.744 783.708 314.209 783.197L315.083 782.235C316.283 780.915 318.479 781.764 318.479 783.548V783.75C318.479 784.716 319.262 785.5 320.229 785.5C321.195 785.5 321.979 784.714 321.979 783.748C321.979 782.182 323.871 781.393 324.979 782.5L325.82 783.341C326.241 783.763 326.814 784 327.41 784H342.729C345.628 784 347.979 781.649 347.979 778.75C347.979 775.851 345.628 773.5 342.729 773.5H340.368C338.21 773.5 336.154 772.584 334.711 770.981L334.426 770.664C333.172 769.271 332.479 767.463 332.479 765.588V763.25C332.479 760.351 330.128 758 327.229 758H325.479C323.546 758 321.979 756.433 321.979 754.5C321.979 752.567 323.546 751 325.479 751H353.229C353.919 751 354.479 750.44 354.479 749.75C354.479 749.06 353.919 748.5 353.229 748.5H325.479C323.546 748.5 321.979 746.933 321.979 745V744.429C321.979 741.78 325.002 740.268 327.121 741.857C327.678 742.274 328.354 742.5 329.05 742.5H343.229C346.128 742.5 348.479 740.149 348.479 737.25C348.479 734.351 346.128 732 343.229 732H340.7C338.637 732 336.659 731.181 335.2 729.722L333.946 728.468C332.686 727.208 331.979 725.499 331.979 723.718V722C331.979 719.239 329.74 717 326.979 717H326.729C324.105 717 321.979 714.873 321.979 712.25C321.979 709.627 324.105 707.5 326.729 707.5Z" stroke="white"/>
<path d="M344.535 767.734C341.774 767.734 339.535 765.496 339.535 762.734C339.535 759.973 341.774 757.734 344.535 757.734C347.296 757.734 349.535 759.973 349.535 762.734C349.535 765.496 347.296 767.734 344.535 767.734Z" stroke="white"/>
<path d="M300.6 770.076C297.838 770.076 295.6 767.838 295.6 765.076C295.6 762.315 297.838 760.076 300.6 760.076C303.361 760.076 305.6 762.315 305.6 765.076C305.6 767.838 303.361 770.076 300.6 770.076Z" stroke="white"/>
<path d="M298.418 729.133C295.657 729.133 293.418 726.894 293.418 724.133C293.418 721.371 295.657 719.133 298.418 719.133C301.179 719.133 303.418 721.371 303.418 724.133C303.418 726.894 301.179 729.133 298.418 729.133Z" stroke="white"/>
<path d="M342.355 726.793C339.594 726.793 337.355 724.554 337.355 721.793C337.355 719.032 339.594 716.793 342.355 716.793C345.117 716.793 347.355 719.032 347.355 721.793C347.355 724.554 345.117 726.793 342.355 726.793Z" stroke="white"/>
<path d="M254.457 707.5V760.258C254.457 765.781 249.98 770.258 244.457 770.258" stroke="white"/>
<path d="M254 724.5H245" stroke="white"/>
<path d="M254.707 740.244H249.707H244.707" stroke="white"/>
<path d="M254 755.723H245.531" stroke="white"/>
<path d="M236 774.324V706.564C236 704.355 234.209 702.564 232 702.564H231C229.619 702.564 228.5 703.684 228.5 705.064V705.814C228.5 706.781 229.284 707.564 230.25 707.564C231.216 707.564 232 708.348 232 709.314V769.324C232 780.767 232 786.489 229.493 790.727C227.95 793.337 225.772 795.514 223.163 797.058C218.924 799.564 213.203 799.564 201.76 799.564H131.24C119.797 799.564 114.076 799.564 109.837 797.058C107.228 795.514 105.05 793.337 103.507 790.727C101 786.489 101 780.767 101 769.324V719.064C101 712.713 106.149 707.564 112.5 707.564H121.5C122.881 707.564 124 706.445 124 705.064C124 703.684 122.881 702.564 121.5 702.564H110C102.268 702.564 96 708.832 96 716.564V774.324C96 785.767 96 791.489 98.5066 795.727C100.05 798.337 102.228 800.514 104.837 802.058C109.076 804.564 114.797 804.564 126.24 804.564H205.76C217.203 804.564 222.924 804.564 227.163 802.058C229.772 800.514 231.95 798.337 233.493 795.727C236 791.489 236 785.767 236 774.324Z" stroke="white"/>
<path d="M182.729 707.5H202.479C204.135 707.5 205.479 706.157 205.479 704.5C205.479 702.843 204.135 701.5 202.479 701.5H151.979C150.322 701.5 148.979 702.843 148.979 704.5C148.979 706.157 150.322 707.5 151.979 707.5H169.729C172.352 707.5 174.479 709.627 174.479 712.25C174.479 714.873 172.352 717 169.729 717H169.479C166.717 717 164.479 719.239 164.479 722V724.429C164.479 726.686 163.453 728.821 161.69 730.231L161.588 730.312C160.222 731.405 158.526 732 156.777 732H153.729C150.829 732 148.479 734.351 148.479 737.25C148.479 740.149 150.829 742.5 153.729 742.5H169.6C170.159 742.5 170.691 742.261 171.062 741.844C172.256 740.5 174.479 741.345 174.479 743.143V745.608C174.479 747.205 173.184 748.5 171.586 748.5H143.229C142.538 748.5 141.979 749.06 141.979 749.75C141.979 750.44 142.538 751 143.229 751H170.979C172.912 751 174.479 752.567 174.479 754.5C174.479 756.433 172.912 758 170.979 758H169.479C166.717 758 164.479 760.239 164.479 763V765.62C164.479 768.058 163.312 770.348 161.34 771.782L160.963 772.057C159.673 772.995 158.119 773.5 156.525 773.5H154.229C151.329 773.5 148.979 775.851 148.979 778.75C148.979 781.649 151.329 784 154.229 784H168.393C169.084 784 169.744 783.708 170.209 783.197L171.083 782.235C172.283 780.915 174.479 781.764 174.479 783.548V783.75C174.479 784.716 175.262 785.5 176.229 785.5C177.195 785.5 177.979 784.714 177.979 783.748C177.979 782.182 179.871 781.393 180.979 782.5L181.82 783.341C182.241 783.763 182.814 784 183.41 784H198.729C201.628 784 203.979 781.649 203.979 778.75C203.979 775.851 201.628 773.5 198.729 773.5H196.368C194.21 773.5 192.154 772.584 190.711 770.981L190.426 770.664C189.172 769.271 188.479 767.463 188.479 765.588V763.25C188.479 760.351 186.128 758 183.229 758H181.479C179.546 758 177.979 756.433 177.979 754.5C177.979 752.567 179.546 751 181.479 751H209.229C209.919 751 210.479 750.44 210.479 749.75C210.479 749.06 209.919 748.5 209.229 748.5H181.479C179.546 748.5 177.979 746.933 177.979 745V744.429C177.979 741.78 181.002 740.268 183.121 741.857C183.678 742.274 184.354 742.5 185.05 742.5H199.229C202.128 742.5 204.479 740.149 204.479 737.25C204.479 734.351 202.128 732 199.229 732H196.7C194.637 732 192.659 731.181 191.2 729.722L189.946 728.468C188.686 727.208 187.979 725.499 187.979 723.718V722C187.979 719.239 185.74 717 182.979 717H182.729C180.105 717 177.979 714.873 177.979 712.25C177.979 709.627 180.105 707.5 182.729 707.5Z" stroke="white"/>
<path d="M200.535 767.734C197.774 767.734 195.535 765.496 195.535 762.734C195.535 759.973 197.774 757.734 200.535 757.734C203.296 757.734 205.535 759.973 205.535 762.734C205.535 765.496 203.296 767.734 200.535 767.734Z" stroke="white"/>
<path d="M154.418 729.133C151.657 729.133 149.418 726.894 149.418 724.133C149.418 721.371 151.657 719.133 154.418 719.133C157.179 719.133 159.418 721.371 159.418 724.133C159.418 726.894 157.179 729.133 154.418 729.133Z" stroke="white"/>
<path d="M198.355 726.793C195.594 726.793 193.355 724.554 193.355 721.793C193.355 719.032 195.594 716.793 198.355 716.793C201.117 716.793 203.355 719.032 203.355 721.793C203.355 724.554 201.117 726.793 198.355 726.793Z" stroke="white"/>
<path d="M110.457 707.5V760.258C110.457 765.781 105.98 770.258 100.457 770.258" stroke="white"/>
<path d="M110 724.5H101" stroke="white"/>
<path d="M110.707 740.244H105.707H100.707" stroke="white"/>
<path d="M110 755.723H101.531" stroke="white"/>
<path d="M778.748 496.5H710.988C708.779 496.5 706.988 498.291 706.988 500.5V501.5C706.988 502.881 708.108 504 709.488 504H710.238C711.205 504 711.988 503.216 711.988 502.25C711.988 501.284 712.772 500.5 713.738 500.5H773.748C785.191 500.5 790.913 500.5 795.151 503.007C797.761 504.55 799.938 506.728 801.482 509.337C803.988 513.576 803.988 519.297 803.988 530.74V601.26C803.988 612.703 803.988 618.424 801.482 622.663C799.938 625.272 797.761 627.45 795.151 628.993C790.913 631.5 785.191 631.5 773.748 631.5H723.488C717.137 631.5 711.988 626.351 711.988 620V611C711.988 609.619 710.869 608.5 709.488 608.5C708.108 608.5 706.988 609.619 706.988 611V622.5C706.988 630.232 713.256 636.5 720.988 636.5H778.748C790.191 636.5 795.913 636.5 800.151 633.993C802.761 632.45 804.938 630.272 806.482 627.663C808.988 623.424 808.988 617.703 808.988 606.26V526.74C808.988 515.297 808.988 509.576 806.482 505.337C804.938 502.728 802.761 500.55 800.151 499.007C795.913 496.5 790.191 496.5 778.748 496.5Z" stroke="white"/>
<path d="M712 549.697V529.947C712 528.29 710.657 526.947 709 526.947C707.343 526.947 706 528.29 706 529.947V580.447C706 582.104 707.343 583.447 709 583.447C710.657 583.447 712 582.104 712 580.447V562.697C712 560.074 714.127 557.947 716.75 557.947C719.373 557.947 721.5 560.074 721.5 562.697V562.947C721.5 565.709 723.739 567.947 726.5 567.947H728.929C731.186 567.947 733.321 568.973 734.731 570.736L734.812 570.838C735.905 572.203 736.5 573.9 736.5 575.649V578.697C736.5 581.597 738.851 583.947 741.75 583.947C744.649 583.947 747 581.597 747 578.697V562.825C747 562.267 746.761 561.735 746.344 561.364C745 560.169 745.845 557.947 747.643 557.947H750.108C751.705 557.947 753 559.242 753 560.84V589.197C753 589.888 753.56 590.447 754.25 590.447C754.94 590.447 755.5 589.888 755.5 589.197V561.447C755.5 559.514 757.067 557.947 759 557.947C760.933 557.947 762.5 559.514 762.5 561.447V562.947C762.5 565.709 764.739 567.947 767.5 567.947H770.12C772.558 567.947 774.848 569.114 776.282 571.085L776.557 571.463C777.495 572.753 778 574.306 778 575.901V578.197C778 581.097 780.351 583.447 783.25 583.447C786.149 583.447 788.5 581.097 788.5 578.197V564.033C788.5 563.341 788.208 562.682 787.697 562.217L786.735 561.343C785.415 560.143 786.264 557.947 788.048 557.947H788.25C789.216 557.947 790 557.164 790 556.197C790 555.231 789.214 554.447 788.248 554.447C786.682 554.447 785.893 552.554 787 551.447L787.841 550.606C788.263 550.184 788.5 549.612 788.5 549.015V533.697C788.5 530.798 786.149 528.447 783.25 528.447C780.351 528.447 778 530.798 778 533.697V536.058C778 538.215 777.084 540.271 775.481 541.715L775.164 541.999C773.771 543.253 771.963 543.947 770.088 543.947H767.75C764.851 543.947 762.5 546.298 762.5 549.197V550.947C762.5 552.88 760.933 554.447 759 554.447C757.067 554.447 755.5 552.88 755.5 550.947V523.197C755.5 522.507 754.94 521.947 754.25 521.947C753.56 521.947 753 522.507 753 523.197V550.947C753 552.88 751.433 554.447 749.5 554.447H748.929C746.28 554.447 744.768 551.423 746.357 549.304C746.774 548.748 747 548.071 747 547.376V533.197C747 530.298 744.649 527.947 741.75 527.947C738.851 527.947 736.5 530.298 736.5 533.197V535.725C736.5 537.788 735.681 539.767 734.222 541.225L732.968 542.48C731.708 543.74 729.999 544.447 728.218 544.447H726.5C723.739 544.447 721.5 546.686 721.5 549.447V549.697C721.5 552.321 719.373 554.447 716.75 554.447C714.127 554.447 712 552.321 712 549.697Z" stroke="white"/>
<path d="M772.414 532.035C772.414 534.797 770.175 537.035 767.414 537.035C764.653 537.035 762.414 534.797 762.414 532.035C762.414 529.274 764.653 527.035 767.414 527.035C770.175 527.035 772.414 529.274 772.414 532.035Z" stroke="white"/>
<path d="M774.428 575.988C774.428 578.75 772.189 580.988 769.428 580.988C766.666 580.988 764.428 578.75 764.428 575.988C764.428 573.227 766.666 570.988 769.428 570.988C772.189 570.988 774.428 573.227 774.428 575.988Z" stroke="white"/>
<path d="M733.469 577.863C733.469 580.625 731.23 582.863 728.469 582.863C725.707 582.863 723.469 580.625 723.469 577.863C723.469 575.102 725.707 572.863 728.469 572.863C731.23 572.863 733.469 575.102 733.469 577.863Z" stroke="white"/>
<path d="M731.459 533.908C731.459 536.67 729.22 538.908 726.459 538.908C723.698 538.908 721.459 536.67 721.459 533.908C721.459 531.147 723.698 528.908 726.459 528.908C729.22 528.908 731.459 531.147 731.459 533.908Z" stroke="white"/>
<path d="M711.469 621.932H764.227C769.749 621.932 774.227 626.409 774.227 631.932" stroke="white"/>
<path d="M728.469 622.281V631.281" stroke="white"/>
<path d="M744.215 621.693V626.693V631.693" stroke="white"/>
<path d="M759.693 622.518V630.986" stroke="white"/>
<path d="M778.748 209.5L710.988 209.5C708.779 209.5 706.988 211.291 706.988 213.5V214.5C706.988 215.881 708.108 217 709.488 217H710.238C711.205 217 711.988 216.216 711.988 215.25C711.988 214.284 712.772 213.5 713.738 213.5L773.748 213.5C785.191 213.5 790.913 213.5 795.151 216.007C797.761 217.55 799.938 219.728 801.482 222.337C803.988 226.576 803.988 232.297 803.988 243.74V314.26C803.988 325.703 803.988 331.424 801.482 335.663C799.938 338.272 797.761 340.45 795.151 341.993C790.913 344.5 785.191 344.5 773.748 344.5H723.488C717.137 344.5 711.988 339.351 711.988 333V324C711.988 322.619 710.869 321.5 709.488 321.5C708.108 321.5 706.988 322.619 706.988 324V335.5C706.988 343.232 713.256 349.5 720.988 349.5H778.748C790.191 349.5 795.913 349.5 800.151 346.993C802.761 345.45 804.938 343.272 806.482 340.663C808.988 336.424 808.988 330.703 808.988 319.26V239.74C808.988 228.297 808.988 222.576 806.482 218.337C804.938 215.728 802.761 213.55 800.151 212.007C795.913 209.5 790.191 209.5 778.748 209.5Z" stroke="white"/>
<path d="M712 262.697V242.947C712 241.29 710.657 239.947 709 239.947C707.343 239.947 706 241.29 706 242.947V293.447C706 295.104 707.343 296.447 709 296.447C710.657 296.447 712 295.104 712 293.447V275.697C712 273.074 714.127 270.947 716.75 270.947C719.373 270.947 721.5 273.074 721.5 275.697V275.947C721.5 278.709 723.739 280.947 726.5 280.947H728.929C731.186 280.947 733.321 281.973 734.731 283.736L734.812 283.838C735.905 285.203 736.5 286.9 736.5 288.649V291.697C736.5 294.597 738.851 296.947 741.75 296.947C744.649 296.947 747 294.597 747 291.697V275.825C747 275.267 746.761 274.735 746.344 274.364C745 273.169 745.845 270.947 747.643 270.947H750.108C751.705 270.947 753 272.242 753 273.84V302.197C753 302.888 753.56 303.447 754.25 303.447C754.94 303.447 755.5 302.888 755.5 302.197V274.447C755.5 272.514 757.067 270.947 759 270.947C760.933 270.947 762.5 272.514 762.5 274.447V275.947C762.5 278.709 764.739 280.947 767.5 280.947H770.12C772.558 280.947 774.848 282.114 776.282 284.085L776.557 284.463C777.495 285.753 778 287.306 778 288.901V291.197C778 294.097 780.351 296.447 783.25 296.447C786.149 296.447 788.5 294.097 788.5 291.197V277.033C788.5 276.341 788.208 275.682 787.697 275.217L786.735 274.343C785.415 273.143 786.264 270.947 788.048 270.947H788.25C789.216 270.947 790 270.164 790 269.197C790 268.231 789.214 267.447 788.248 267.447C786.682 267.447 785.893 265.554 787 264.447L787.841 263.606C788.263 263.184 788.5 262.612 788.5 262.015V246.697C788.5 243.798 786.149 241.447 783.25 241.447C780.351 241.447 778 243.798 778 246.697V249.058C778 251.215 777.084 253.271 775.481 254.715L775.164 254.999C773.771 256.253 771.963 256.947 770.088 256.947H767.75C764.851 256.947 762.5 259.298 762.5 262.197V263.947C762.5 265.88 760.933 267.447 759 267.447C757.067 267.447 755.5 265.88 755.5 263.947V236.197C755.5 235.507 754.94 234.947 754.25 234.947C753.56 234.947 753 235.507 753 236.197V263.947C753 265.88 751.433 267.447 749.5 267.447H748.929C746.28 267.447 744.768 264.423 746.357 262.304C746.774 261.748 747 261.071 747 260.376V246.197C747 243.298 744.649 240.947 741.75 240.947C738.851 240.947 736.5 243.298 736.5 246.197V248.725C736.5 250.788 735.681 252.767 734.222 254.225L732.968 255.48C731.708 256.74 729.999 257.447 728.218 257.447H726.5C723.739 257.447 721.5 259.686 721.5 262.447V262.697C721.5 265.321 719.373 267.447 716.75 267.447C714.127 267.447 712 265.321 712 262.697Z" stroke="white"/>
<path d="M772.414 245.035C772.414 247.797 770.175 250.035 767.414 250.035C764.653 250.035 762.414 247.797 762.414 245.035C762.414 242.274 764.653 240.035 767.414 240.035C770.175 240.035 772.414 242.274 772.414 245.035Z" stroke="white"/>
<path d="M774.428 288.988C774.428 291.75 772.189 293.988 769.428 293.988C766.666 293.988 764.428 291.75 764.428 288.988C764.428 286.227 766.666 283.988 769.428 283.988C772.189 283.988 774.428 286.227 774.428 288.988Z" stroke="white"/>
<path d="M733.469 290.863C733.469 293.625 731.23 295.863 728.469 295.863C725.707 295.863 723.469 293.625 723.469 290.863C723.469 288.102 725.707 285.863 728.469 285.863C731.23 285.863 733.469 288.102 733.469 290.863Z" stroke="white"/>
<path d="M731.459 246.908C731.459 249.67 729.22 251.908 726.459 251.908C723.698 251.908 721.459 249.67 721.459 246.908C721.459 244.147 723.698 241.908 726.459 241.908C729.22 241.908 731.459 244.147 731.459 246.908Z" stroke="white"/>
<path d="M711.469 334.932H764.227C769.749 334.932 774.227 339.409 774.227 344.932" stroke="white"/>
<path d="M728.469 335.281V344.281" stroke="white"/>
<path d="M744.215 334.693V339.693V344.693" stroke="white"/>
<path d="M759.693 335.518V343.986" stroke="white"/>
<path d="M778.748 352.5H710.988C708.779 352.5 706.988 354.291 706.988 356.5V357.5C706.988 358.881 708.108 360 709.488 360H710.238C711.205 360 711.988 359.216 711.988 358.25C711.988 357.284 712.772 356.5 713.738 356.5H773.748C785.191 356.5 790.913 356.5 795.151 359.007C797.761 360.55 799.938 362.728 801.482 365.337C803.988 369.576 803.988 375.297 803.988 386.74V457.26C803.988 468.703 803.988 474.424 801.482 478.663C799.938 481.272 797.761 483.45 795.151 484.993C790.913 487.5 785.191 487.5 773.748 487.5H723.488C717.137 487.5 711.988 482.351 711.988 476V467C711.988 465.619 710.869 464.5 709.488 464.5C708.108 464.5 706.988 465.619 706.988 467V478.5C706.988 486.232 713.256 492.5 720.988 492.5H778.748C790.191 492.5 795.913 492.5 800.151 489.993C802.761 488.45 804.938 486.272 806.482 483.663C808.988 479.424 808.988 473.703 808.988 462.26V382.74C808.988 371.297 808.988 365.576 806.482 361.337C804.938 358.728 802.761 356.55 800.151 355.007C795.913 352.5 790.191 352.5 778.748 352.5Z" stroke="white"/>
<path d="M712 405.697V385.947C712 384.29 710.657 382.947 709 382.947C707.343 382.947 706 384.29 706 385.947V436.447C706 438.104 707.343 439.447 709 439.447C710.657 439.447 712 438.104 712 436.447V418.697C712 416.074 714.127 413.947 716.75 413.947C719.373 413.947 721.5 416.074 721.5 418.697V418.947C721.5 421.709 723.739 423.947 726.5 423.947H728.929C731.186 423.947 733.321 424.973 734.731 426.736L734.812 426.838C735.905 428.203 736.5 429.9 736.5 431.649V434.697C736.5 437.597 738.851 439.947 741.75 439.947C744.649 439.947 747 437.597 747 434.697V418.825C747 418.267 746.761 417.735 746.344 417.364C745 416.169 745.845 413.947 747.643 413.947H750.108C751.705 413.947 753 415.242 753 416.84V445.197C753 445.888 753.56 446.447 754.25 446.447C754.94 446.447 755.5 445.888 755.5 445.197V417.447C755.5 415.514 757.067 413.947 759 413.947C760.933 413.947 762.5 415.514 762.5 417.447V418.947C762.5 421.709 764.739 423.947 767.5 423.947H770.12C772.558 423.947 774.848 425.114 776.282 427.085L776.557 427.463C777.495 428.753 778 430.306 778 431.901V434.197C778 437.097 780.351 439.447 783.25 439.447C786.149 439.447 788.5 437.097 788.5 434.197V420.033C788.5 419.341 788.208 418.682 787.697 418.217L786.735 417.343C785.415 416.143 786.264 413.947 788.048 413.947H788.25C789.216 413.947 790 413.164 790 412.197C790 411.231 789.214 410.447 788.248 410.447C786.682 410.447 785.893 408.554 787 407.447L787.841 406.606C788.263 406.184 788.5 405.612 788.5 405.015V389.697C788.5 386.798 786.149 384.447 783.25 384.447C780.351 384.447 778 386.798 778 389.697V392.058C778 394.215 777.084 396.271 775.481 397.715L775.164 397.999C773.771 399.253 771.963 399.947 770.088 399.947H767.75C764.851 399.947 762.5 402.298 762.5 405.197V406.947C762.5 408.88 760.933 410.447 759 410.447C757.067 410.447 755.5 408.88 755.5 406.947V379.197C755.5 378.507 754.94 377.947 754.25 377.947C753.56 377.947 753 378.507 753 379.197V406.947C753 408.88 751.433 410.447 749.5 410.447H748.929C746.28 410.447 744.768 407.423 746.357 405.304C746.774 404.748 747 404.071 747 403.376V389.197C747 386.298 744.649 383.947 741.75 383.947C738.851 383.947 736.5 386.298 736.5 389.197V391.725C736.5 393.788 735.681 395.767 734.222 397.225L732.968 398.48C731.708 399.74 729.999 400.447 728.218 400.447H726.5C723.739 400.447 721.5 402.686 721.5 405.447V405.697C721.5 408.321 719.373 410.447 716.75 410.447C714.127 410.447 712 408.321 712 405.697Z" stroke="white"/>
<path d="M772.414 388.035C772.414 390.797 770.175 393.035 767.414 393.035C764.653 393.035 762.414 390.797 762.414 388.035C762.414 385.274 764.653 383.035 767.414 383.035C770.175 383.035 772.414 385.274 772.414 388.035Z" stroke="white"/>
<path d="M774.428 431.988C774.428 434.75 772.189 436.988 769.428 436.988C766.666 436.988 764.428 434.75 764.428 431.988C764.428 429.227 766.666 426.988 769.428 426.988C772.189 426.988 774.428 429.227 774.428 431.988Z" stroke="white"/>
<path d="M733.469 433.863C733.469 436.625 731.23 438.863 728.469 438.863C725.707 438.863 723.469 436.625 723.469 433.863C723.469 431.102 725.707 428.863 728.469 428.863C731.23 428.863 733.469 431.102 733.469 433.863Z" stroke="white"/>
<path d="M731.459 389.908C731.459 392.67 729.22 394.908 726.459 394.908C723.698 394.908 721.459 392.67 721.459 389.908C721.459 387.147 723.698 384.908 726.459 384.908C729.22 384.908 731.459 387.147 731.459 389.908Z" stroke="white"/>
<path d="M711.469 477.932H764.227C769.749 477.932 774.227 482.409 774.227 487.932" stroke="white"/>
<path d="M728.469 478.281V487.281" stroke="white"/>
<path d="M744.215 477.693V482.693V487.693" stroke="white"/>
<path d="M759.693 478.518V486.986" stroke="white"/>
<path d="M225.305 471.543C222.352 471.539 219.911 468.983 219.915 465.77C219.92 462.558 222.368 460.011 225.321 460.015C228.275 460.02 230.716 462.575 230.712 465.787C230.707 469 228.259 471.548 225.305 471.543Z" stroke="white"/>
<path d="M225.239 519.379C222.286 519.375 219.844 516.819 219.849 513.606C219.853 510.394 222.302 507.847 225.255 507.851C228.208 507.856 230.65 510.411 230.645 513.623C230.641 516.836 228.192 519.384 225.239 519.379Z" stroke="white"/>
<path d="M272.489 472.756C269.536 472.752 267.094 470.196 267.099 466.983C267.103 463.771 269.552 461.223 272.505 461.228C275.458 461.233 277.9 463.788 277.895 467C277.891 470.212 275.442 472.761 272.489 472.756Z" stroke="white"/>
<path d="M272.423 519.45C269.469 519.445 267.028 516.889 267.032 513.677C267.037 510.465 269.485 507.917 272.439 507.921C275.392 507.926 277.833 510.481 277.829 513.694C277.825 516.906 275.376 519.454 272.423 519.45Z" stroke="white"/>
<path d="M309.958 519.514C307.004 519.51 304.563 516.953 304.567 513.741C304.572 510.529 307.021 507.981 309.974 507.986C312.927 507.991 315.368 510.546 315.364 513.758C315.36 516.97 312.911 519.519 309.958 519.514Z" stroke="white"/>
<path d="M358.216 519.586C355.262 519.582 352.821 517.026 352.825 513.813C352.83 510.601 355.278 508.054 358.232 508.058C361.185 508.063 363.626 510.618 363.622 513.83C363.618 517.043 361.169 519.591 358.216 519.586Z" stroke="white"/>
<path d="M310.02 471.676C307.067 471.672 304.625 469.115 304.63 465.903C304.634 462.691 307.083 460.143 310.036 460.148C312.989 460.153 315.431 462.708 315.427 465.92C315.422 469.132 312.974 471.681 310.02 471.676Z" stroke="white"/>
<path d="M357.208 471.751C354.254 471.746 351.813 469.19 351.817 465.977C351.822 462.765 354.271 460.218 357.224 460.222C360.177 460.227 362.618 462.782 362.614 465.994C362.61 469.207 360.161 471.755 357.208 471.751Z" stroke="white"/>
<path d="M331.491 455.896L331.496 452.179C331.498 451.291 332.219 450.572 333.107 450.573C333.996 450.575 334.715 451.296 334.714 452.184L334.708 456.169C334.706 457.798 336.024 459.12 337.653 459.123C339.282 459.125 340.6 460.448 340.598 462.076L340.592 466.429C340.59 468.057 339.267 469.376 337.639 469.373C336.01 469.371 334.688 470.689 334.686 472.318L334.684 473.355C334.681 475.557 336.463 477.344 338.665 477.347L356.045 477.375C359.347 477.38 362.021 480.061 362.016 483.364L362.011 486.93C362.009 488.263 363.088 489.345 364.421 489.347C365.753 489.349 366.835 488.27 366.837 486.938L366.851 476.756C366.852 476.163 367.333 475.684 367.925 475.685C368.517 475.686 368.997 476.167 368.996 476.759L368.986 483.944C368.979 488.504 365.277 492.196 360.717 492.188L342.028 492.159C338.254 492.153 335.19 495.208 335.185 498.982L335.179 503.135C335.177 504.616 336.376 505.818 337.856 505.82C339.337 505.822 340.535 507.025 340.533 508.505L340.526 513.963C340.524 515.444 339.322 516.642 337.841 516.64C336.36 516.638 335.158 517.836 335.156 519.317L335.155 520.337C335.152 522.382 336.807 524.042 338.851 524.045L355.411 524.071C359.027 524.077 361.955 527.013 361.95 530.63L361.945 534.23C361.943 535.859 363.262 537.181 364.89 537.184C366.519 537.186 367.841 535.868 367.844 534.239L367.857 524.861C367.858 524.121 368.459 523.522 369.199 523.523C369.939 523.524 370.539 524.125 370.538 524.866L370.528 532.067C370.521 536.785 366.691 540.603 361.973 540.596L219.842 540.373C214.81 540.365 210.736 536.279 210.743 531.247L210.754 522.94C210.755 522.496 211.116 522.136 211.56 522.137C212.004 522.138 212.364 522.498 212.363 522.942L212.347 534.532C212.345 535.864 213.424 536.946 214.756 536.948C216.089 536.95 217.171 535.872 217.173 534.539L217.178 530.403C217.183 526.786 220.12 523.859 223.736 523.864L242.474 523.894C244.203 523.896 245.608 522.496 245.61 520.767C245.612 519.037 244.212 517.632 242.482 517.63L242.129 517.629C240.204 517.626 238.646 516.063 238.649 514.138L238.656 509.15C238.658 507.225 240.221 505.667 242.146 505.67C244.071 505.673 245.633 504.115 245.636 502.19L245.641 498.842C245.646 495.068 242.59 492.003 238.816 491.997L216.91 491.963C212.35 491.956 208.658 488.253 208.664 483.693L208.674 476.508C208.675 475.915 209.156 475.436 209.748 475.437C210.34 475.438 210.82 475.919 210.819 476.511L210.806 485.889C210.803 487.666 212.242 489.108 214.019 489.111C215.795 489.114 217.238 487.676 217.24 485.899L217.244 483.137C217.249 479.834 219.93 477.161 223.232 477.166L241.684 477.195C243.886 477.199 245.673 475.417 245.676 473.215L245.677 472.714C245.68 470.789 244.121 469.227 242.196 469.224C240.272 469.221 238.713 467.658 238.716 465.733L238.721 462.453C238.723 460.528 240.286 458.97 242.211 458.973C244.136 458.976 245.698 457.418 245.701 455.493L245.705 452.313C245.707 451.277 246.548 450.438 247.585 450.439C248.621 450.441 249.46 451.282 249.459 452.319L249.455 455.231C249.452 457.304 251.13 458.987 253.203 458.99C255.276 458.993 256.954 460.677 256.951 462.749L256.947 465.493C256.944 467.566 255.261 469.244 253.188 469.241C251.116 469.238 249.433 470.915 249.43 472.988L249.43 473.221C249.426 475.423 251.209 477.21 253.41 477.214L271.327 477.242C274.629 477.247 277.302 479.928 277.298 483.231L277.293 486.797C277.291 488.13 278.37 489.212 279.702 489.214C281.035 489.216 282.117 488.138 282.118 486.805L282.133 476.623C282.133 476.031 282.614 475.551 283.206 475.552C283.799 475.553 284.278 476.034 284.277 476.626L284.267 483.811C284.261 488.372 280.559 492.063 275.999 492.056L256.237 492.025C252.463 492.019 249.399 495.073 249.394 498.848L249.39 501.928C249.387 504.001 251.065 505.684 253.138 505.687C255.211 505.69 256.889 507.374 256.886 509.446L256.88 513.899C256.877 515.972 255.194 517.649 253.121 517.646L252.5 517.645C250.77 517.643 249.366 519.043 249.363 520.772C249.361 522.502 250.761 523.907 252.491 523.909L270.692 523.938C274.309 523.944 277.237 526.88 277.232 530.497L277.226 534.633C277.224 535.966 278.303 537.048 279.636 537.05C280.968 537.052 282.05 535.974 282.052 534.641L282.065 525.028C282.066 524.436 282.547 523.957 283.139 523.958C283.731 523.958 284.211 524.439 284.21 525.032L284.202 530.891C284.197 534.296 286.954 537.061 290.36 537.067C293.765 537.072 296.53 534.316 296.534 530.91L296.543 524.783C296.544 524.339 296.904 523.979 297.348 523.98C297.792 523.981 298.152 524.341 298.151 524.785L298.138 534.666C298.136 535.999 299.215 537.081 300.547 537.083C301.88 537.085 302.962 536.006 302.963 534.674L302.969 530.538C302.974 526.921 305.91 523.993 309.527 523.999L327.695 524.027C329.739 524.031 331.399 522.376 331.402 520.332L331.402 519.847C331.405 518.07 329.966 516.628 328.19 516.625C326.413 516.622 324.975 515.18 324.977 513.403L324.983 509.017C324.986 507.24 326.428 505.802 328.205 505.805C329.981 505.808 331.424 504.37 331.426 502.593L331.431 498.976C331.437 495.202 328.381 492.138 324.607 492.132L302.165 492.097C297.604 492.09 293.913 488.387 293.919 483.826L293.929 476.373C293.93 475.929 294.29 475.569 294.735 475.57C295.179 475.571 295.538 475.932 295.538 476.376L295.525 485.486C295.522 487.558 297.2 489.241 299.273 489.245C301.346 489.248 303.029 487.57 303.032 485.497L303.035 483.271C303.04 479.969 305.72 477.296 309.023 477.301L327.475 477.33C329.677 477.333 331.464 475.551 331.467 473.35L331.468 472.581C331.471 470.804 330.032 469.361 328.255 469.358C326.479 469.356 325.04 467.913 325.043 466.136L325.048 462.32C325.05 460.543 326.493 459.105 328.27 459.108C330.046 459.111 331.489 457.673 331.491 455.896Z" stroke="white"/>
<path d="M436.63 471.674C433.676 471.67 431.235 469.114 431.239 465.901C431.244 462.689 433.692 460.141 436.646 460.146C439.599 460.151 442.04 462.706 442.036 465.918C442.032 469.13 439.583 471.679 436.63 471.674Z" stroke="white"/>
<path d="M436.559 519.51C433.606 519.506 431.164 516.949 431.169 513.737C431.174 510.525 433.622 507.977 436.575 507.982C439.529 507.987 441.97 510.542 441.966 513.754C441.961 516.966 439.513 519.515 436.559 519.51Z" stroke="white"/>
<path d="M483.813 472.889C480.86 472.885 478.418 470.328 478.423 467.116C478.427 463.904 480.876 461.356 483.829 461.361C486.782 461.366 489.224 463.921 489.22 467.133C489.215 470.345 486.767 472.894 483.813 472.889Z" stroke="white"/>
<path d="M483.747 519.588C480.793 519.584 478.352 517.028 478.356 513.815C478.361 510.603 480.81 508.056 483.763 508.06C486.716 508.065 489.157 510.62 489.153 513.832C489.149 517.045 486.7 519.593 483.747 519.588Z" stroke="white"/>
<path d="M521.282 519.647C518.329 519.642 515.887 517.086 515.892 513.874C515.896 510.662 518.345 508.114 521.298 508.119C524.251 508.123 526.693 510.679 526.688 513.891C526.684 517.103 524.235 519.652 521.282 519.647Z" stroke="white"/>
<path d="M569.536 519.719C566.583 519.715 564.141 517.158 564.145 513.946C564.15 510.734 566.599 508.186 569.552 508.191C572.505 508.196 574.947 510.751 574.942 513.963C574.938 517.175 572.489 519.724 569.536 519.719Z" stroke="white"/>
<path d="M521.348 471.809C518.395 471.804 515.953 469.248 515.958 466.036C515.963 462.824 518.411 460.276 521.364 460.281C524.318 460.285 526.759 462.841 526.755 466.053C526.75 469.265 524.302 471.814 521.348 471.809Z" stroke="white"/>
<path d="M568.528 471.883C565.575 471.879 563.133 469.322 563.138 466.11C563.142 462.898 565.591 460.35 568.544 460.355C571.497 460.36 573.939 462.915 573.934 466.127C573.93 469.339 571.481 471.888 568.528 471.883Z" stroke="white"/>
<path d="M542.815 456.027L542.821 452.31C542.822 451.422 543.543 450.703 544.431 450.704C545.32 450.706 546.039 451.427 546.038 452.315L546.032 456.3C546.03 457.929 547.348 459.251 548.977 459.254C550.606 459.256 551.924 460.578 551.922 462.207L551.916 466.56C551.914 468.188 550.592 469.507 548.963 469.504C547.334 469.502 546.012 470.82 546.01 472.448L546.008 473.486C546.005 475.687 547.788 477.475 549.989 477.478L567.369 477.506C570.672 477.511 573.345 480.192 573.34 483.494L573.335 487.061C573.334 488.394 574.412 489.476 575.745 489.478C577.077 489.48 578.159 488.401 578.161 487.069L578.175 476.887C578.176 476.294 578.657 475.815 579.249 475.816C579.841 475.817 580.321 476.298 580.32 476.89L580.31 484.075C580.304 488.635 576.602 492.326 572.041 492.319L553.352 492.29C549.578 492.284 546.514 495.339 546.509 499.113L546.503 503.266C546.501 504.746 547.7 505.949 549.18 505.951C550.661 505.953 551.86 507.155 551.858 508.636L551.85 514.094C551.848 515.575 550.646 516.773 549.165 516.771C547.685 516.769 546.483 517.967 546.481 519.448L546.479 520.468C546.476 522.513 548.131 524.173 550.176 524.176L566.735 524.202C570.352 524.207 573.28 527.144 573.275 530.761L573.27 534.361C573.267 535.99 574.586 537.312 576.215 537.315C577.843 537.317 579.165 535.999 579.168 534.37L579.181 524.992C579.182 524.252 579.783 523.653 580.523 523.654C581.263 523.655 581.863 524.256 581.862 524.996L581.852 532.198C581.845 536.916 578.015 540.734 573.298 540.727L431.166 540.504C426.134 540.496 422.06 536.41 422.067 531.378L422.079 523.071C422.079 522.627 422.44 522.267 422.884 522.268C423.328 522.268 423.688 522.629 423.687 523.073L423.671 534.662C423.669 535.995 424.748 537.077 426.081 537.079C427.413 537.081 428.495 536.003 428.497 534.67L428.503 530.534C428.508 526.917 431.444 523.99 435.061 523.995L453.798 524.025C455.528 524.027 456.932 522.627 456.934 520.897C456.937 519.168 455.536 517.763 453.807 517.76L453.453 517.76C451.529 517.757 449.97 516.194 449.973 514.269L449.98 509.281C449.983 507.356 451.545 505.798 453.47 505.801C455.395 505.804 456.957 504.246 456.96 502.321L456.965 498.973C456.97 495.198 453.915 492.134 450.141 492.128L428.234 492.094C423.674 492.087 419.982 488.384 419.988 483.823L419.998 476.638C419.999 476.046 420.48 475.567 421.072 475.568C421.665 475.569 422.144 476.05 422.143 476.642L422.13 486.02C422.128 487.796 423.566 489.239 425.343 489.242C427.12 489.245 428.562 487.807 428.564 486.03L428.568 483.267C428.573 479.965 431.254 477.292 434.556 477.297L453.009 477.326C455.21 477.33 456.997 475.548 457 473.346L457.001 472.845C457.004 470.92 455.446 469.357 453.521 469.354C451.596 469.351 450.038 467.789 450.04 465.864L450.045 462.584C450.048 460.659 451.61 459.101 453.535 459.104C455.46 459.107 457.022 457.549 457.025 455.624L457.029 452.444C457.031 451.407 457.872 450.568 458.909 450.57C459.945 450.572 460.784 451.413 460.783 452.45L460.779 455.362C460.776 457.435 462.454 459.118 464.527 459.121C466.6 459.124 468.278 460.807 468.275 462.88L468.271 465.624C468.268 467.697 466.586 469.375 464.513 469.372C462.44 469.368 460.757 471.046 460.754 473.119L460.754 473.352C460.751 475.554 462.533 477.341 464.735 477.345L482.651 477.373C485.953 477.378 488.626 480.059 488.622 483.362L488.617 486.928C488.615 488.261 489.694 489.343 491.026 489.345C492.359 489.347 493.441 488.268 493.443 486.936L493.457 476.754C493.458 476.161 493.938 475.682 494.531 475.683C495.123 475.684 495.602 476.165 495.602 476.757L495.592 483.942C495.585 488.502 491.883 492.194 487.323 492.186L467.561 492.155C463.787 492.15 460.723 495.204 460.718 498.978L460.714 502.059C460.711 504.132 462.389 505.815 464.462 505.818C466.535 505.821 468.213 507.504 468.21 509.577L468.204 514.03C468.201 516.103 466.518 517.78 464.445 517.777L463.824 517.776C462.094 517.773 460.69 519.173 460.688 520.903C460.685 522.633 462.086 524.038 463.815 524.04L482.016 524.069C485.633 524.075 488.561 527.011 488.556 530.628L488.55 534.764C488.549 536.097 489.627 537.179 490.96 537.181C492.293 537.183 493.374 536.104 493.376 534.772L493.39 525.159C493.39 524.567 493.871 524.087 494.463 524.088C495.056 524.089 495.535 524.57 495.534 525.162L495.526 531.022C495.521 534.427 498.278 537.192 501.684 537.198C505.089 537.203 507.854 534.447 507.859 531.041L507.867 524.914C507.868 524.469 508.228 524.11 508.673 524.111C509.117 524.111 509.476 524.472 509.476 524.916L509.462 534.797C509.46 536.13 510.539 537.212 511.871 537.214C513.204 537.216 514.286 536.137 514.288 534.805L514.293 530.668C514.298 527.052 517.235 524.124 520.852 524.13L539.019 524.158C541.063 524.161 542.723 522.507 542.726 520.462L542.727 519.978C542.729 518.201 541.291 516.759 539.514 516.756C537.737 516.753 536.299 515.31 536.301 513.534L536.307 509.148C536.31 507.371 537.752 505.933 539.529 505.936C541.306 505.939 542.748 504.5 542.751 502.724L542.756 499.107C542.761 495.333 539.706 492.269 535.931 492.263L513.489 492.228C508.929 492.22 505.237 488.518 505.243 483.957L505.253 476.504C505.254 476.06 505.615 475.7 506.059 475.701C506.503 475.702 506.863 476.062 506.862 476.507L506.849 485.616C506.846 487.689 508.525 489.372 510.597 489.376C512.67 489.379 514.353 487.701 514.356 485.628L514.359 483.402C514.364 480.1 517.045 477.427 520.347 477.432L538.799 477.461C541.001 477.464 542.788 475.682 542.791 473.481L542.792 472.712C542.795 470.935 541.356 469.492 539.58 469.489C537.803 469.487 536.364 468.044 536.367 466.267L536.372 462.451C536.375 460.674 537.817 459.236 539.594 459.239C541.371 459.242 542.813 457.803 542.815 456.027Z" stroke="white"/>
<path d="M564.981 386.359C567.964 386.36 570.378 388.767 570.378 391.731C570.378 394.697 567.964 397.104 564.981 397.104C561.999 397.104 559.584 394.697 559.584 391.731C559.584 388.766 561.999 386.359 564.981 386.359Z" stroke="white"/>
<path d="M564.981 338.541C567.964 338.541 570.378 340.948 570.378 343.913C570.378 346.878 567.964 349.286 564.981 349.286C561.999 349.286 559.584 346.878 559.584 343.913C559.584 340.948 561.999 338.541 564.981 338.541Z" stroke="white"/>
<path d="M517.808 384.68C520.758 384.68 523.204 387.242 523.204 390.472C523.204 393.701 520.758 396.263 517.808 396.264C514.857 396.264 512.41 393.702 512.41 390.472C512.41 387.242 514.857 384.68 517.808 384.68Z" stroke="white"/>
<path d="M517.808 338.541C520.79 338.541 523.204 340.948 523.204 343.913C523.204 346.878 520.79 349.286 517.808 349.286C514.825 349.286 512.41 346.878 512.41 343.913C512.41 340.948 514.825 338.541 517.808 338.541Z" stroke="white"/>
<path d="M480.46 338.541C483.442 338.541 485.856 340.948 485.856 343.913C485.856 346.878 483.442 349.286 480.46 349.286C477.477 349.286 475.062 346.878 475.062 343.913C475.063 340.948 477.478 338.541 480.46 338.541Z" stroke="white"/>
<path d="M431.321 338.541C434.303 338.541 436.718 340.948 436.718 343.913C436.718 346.878 434.304 349.286 431.321 349.286C428.339 349.286 425.924 346.878 425.924 343.913C425.924 340.948 428.339 338.541 431.321 338.541Z" stroke="white"/>
<path d="M480.46 386.359C483.442 386.36 485.856 388.767 485.856 391.731C485.856 394.697 483.442 397.104 480.46 397.104C477.477 397.104 475.062 394.697 475.062 391.731C475.063 388.766 477.478 386.359 480.46 386.359Z" stroke="white"/>
<path d="M433.286 386.359C436.268 386.36 438.682 388.767 438.683 391.731C438.683 394.697 436.268 397.104 433.286 397.104C430.304 397.104 427.889 394.697 427.889 391.731C427.889 388.766 430.304 386.359 433.286 386.359Z" stroke="white"/>
<path d="M458.725 401.61V405.22C458.725 406.109 458.004 406.831 457.115 406.831C456.225 406.831 455.504 406.109 455.504 405.22V401.341C455.504 399.71 454.181 398.388 452.55 398.388C450.919 398.388 449.597 397.066 449.597 395.435V391.211C449.597 389.58 450.919 388.257 452.55 388.257C454.181 388.257 455.504 386.935 455.504 385.304V384.318C455.504 382.142 453.74 380.378 451.564 380.378H434.028C430.765 380.378 428.119 377.732 428.119 374.468V370.975C428.119 369.64 427.037 368.558 425.702 368.558C424.368 368.558 423.286 369.64 423.286 370.975V380.992C423.286 381.585 422.805 382.066 422.212 382.066C421.619 382.066 421.138 381.585 421.138 380.992V373.905C421.138 369.398 424.792 365.744 429.299 365.744H448.213C451.943 365.744 454.967 362.721 454.967 358.99V354.921C454.967 353.439 453.765 352.237 452.282 352.237C450.799 352.237 449.597 351.035 449.597 349.552V344.228C449.597 342.745 450.799 341.543 452.282 341.543C453.765 341.543 454.967 340.341 454.967 338.858V337.885C454.967 335.864 453.329 334.226 451.308 334.226H434.591C431.017 334.226 428.119 331.328 428.119 327.754V324.235C428.119 322.603 426.796 321.281 425.165 321.281C423.534 321.281 422.212 322.603 422.212 324.235V333.447C422.212 334.188 421.611 334.789 420.87 334.789C420.128 334.789 419.527 334.188 419.527 333.447V326.347C419.527 321.684 423.307 317.904 427.97 317.904H570.536C575.51 317.904 579.542 321.936 579.542 326.909V335.109C579.542 335.554 579.181 335.915 578.736 335.915C578.291 335.915 577.931 335.554 577.931 335.109V323.698C577.931 322.363 576.849 321.281 575.514 321.281C574.18 321.281 573.098 322.363 573.098 323.698V327.754C573.098 331.328 570.2 334.226 566.626 334.226H547.735C546.025 334.226 544.639 335.612 544.639 337.322C544.639 339.031 546.025 340.417 547.735 340.417H548.129C550.057 340.417 551.62 341.98 551.62 343.908V348.746C551.62 350.674 550.057 352.237 548.129 352.237C546.202 352.237 544.639 353.799 544.639 355.727V358.99C544.639 362.721 547.663 365.744 551.393 365.744H573.529C578.036 365.744 581.689 369.398 581.689 373.905V380.992C581.689 381.585 581.209 382.066 580.616 382.066C580.022 382.066 579.542 381.585 579.542 380.992V371.78C579.542 370.001 578.099 368.558 576.32 368.558C574.541 368.558 573.098 370.001 573.098 371.78V374.468C573.098 377.732 570.452 380.378 567.188 380.378H548.579C546.403 380.378 544.639 382.142 544.639 384.318V384.767C544.639 386.695 546.202 388.257 548.129 388.257C550.057 388.257 551.62 389.82 551.62 391.748V394.898C551.62 396.826 550.057 398.388 548.129 398.388C546.202 398.388 544.639 399.951 544.639 401.878V404.951C544.639 405.989 543.798 406.831 542.76 406.831C541.722 406.831 540.88 405.989 540.88 404.951V402.147C540.88 400.071 539.198 398.388 537.122 398.388C535.046 398.388 533.363 396.705 533.363 394.629V392.016C533.363 389.94 535.046 388.257 537.122 388.257C539.198 388.257 540.88 386.574 540.88 384.499V384.318C540.88 382.142 539.117 380.378 536.941 380.378H518.868C515.604 380.378 512.959 377.732 512.959 374.468V370.975C512.959 369.64 511.877 368.558 510.542 368.558C509.208 368.558 508.126 369.64 508.126 370.975V380.992C508.126 381.585 507.645 382.066 507.052 382.066C506.459 382.066 505.978 381.585 505.978 380.992V373.905C505.978 369.398 509.632 365.744 514.139 365.744H534.127C537.857 365.744 540.88 362.721 540.88 358.99V355.995C540.88 353.919 539.198 352.237 537.122 352.237C535.046 352.237 533.363 350.554 533.363 348.478V344.176C533.363 342.1 535.046 340.417 537.122 340.417H537.785C539.495 340.417 540.88 339.031 540.88 337.322C540.88 335.612 539.495 334.226 537.785 334.226H519.431C515.856 334.226 512.959 331.328 512.959 327.754V323.698C512.959 322.363 511.877 321.281 510.542 321.281C509.208 321.281 508.126 322.363 508.126 323.698V333.152C508.126 333.745 507.645 334.226 507.052 334.226C506.459 334.226 505.978 333.745 505.978 333.152V327.456C505.978 324.046 503.213 321.281 499.803 321.281C496.393 321.281 493.628 324.046 493.628 327.456V333.421C493.628 333.866 493.267 334.226 492.822 334.226C492.378 334.226 492.017 333.866 492.017 333.421V323.698C492.017 322.363 490.935 321.281 489.601 321.281C488.266 321.281 487.184 322.363 487.184 323.698V327.754C487.184 331.328 484.287 334.226 480.712 334.226H462.384C460.363 334.226 458.725 335.864 458.725 337.885V338.321C458.725 340.1 460.168 341.543 461.947 341.543C463.727 341.543 465.169 342.985 465.169 344.765V349.015C465.169 350.794 463.727 352.237 461.947 352.237C460.168 352.237 458.725 353.679 458.725 355.458V358.99C458.725 362.721 461.749 365.744 465.479 365.744H488.152C492.659 365.744 496.313 369.398 496.313 373.905V381.261C496.313 381.706 495.952 382.066 495.507 382.066C495.062 382.066 494.702 381.706 494.702 381.261V372.317C494.702 370.241 493.019 368.558 490.943 368.558C488.867 368.558 487.184 370.241 487.184 372.317V374.468C487.184 377.732 484.539 380.378 481.275 380.378H462.665C460.489 380.378 458.725 382.142 458.725 384.318V385.036C458.725 386.815 460.168 388.257 461.947 388.257C463.727 388.257 465.169 389.7 465.169 391.479V395.166C465.169 396.946 463.727 398.388 461.947 398.388C460.168 398.388 458.725 399.831 458.725 401.61Z" stroke="white"/>
<path d="M358.593 386.359C361.575 386.36 363.989 388.767 363.989 391.731C363.989 394.697 361.575 397.104 358.593 397.104C355.61 397.104 353.195 394.697 353.195 391.731C353.196 388.766 355.61 386.359 358.593 386.359Z" stroke="white"/>
<path d="M358.593 338.541C361.575 338.541 363.989 340.948 363.989 343.913C363.989 346.878 361.575 349.286 358.593 349.286C355.61 349.286 353.195 346.878 353.195 343.913C353.196 340.948 355.61 338.541 358.593 338.541Z" stroke="white"/>
<path d="M311.419 384.68C314.369 384.68 316.815 387.242 316.815 390.472C316.815 393.701 314.369 396.263 311.419 396.264C308.468 396.264 306.022 393.702 306.021 390.472C306.021 387.242 308.468 384.68 311.419 384.68Z" stroke="white"/>
<path d="M311.419 338.541C314.401 338.541 316.815 340.948 316.815 343.913C316.815 346.878 314.401 349.286 311.419 349.286C308.436 349.286 306.021 346.878 306.021 343.913C306.022 340.948 308.437 338.541 311.419 338.541Z" stroke="white"/>
<path d="M274.073 338.541C277.055 338.541 279.47 340.948 279.47 343.913C279.47 346.878 277.056 349.286 274.073 349.286C271.091 349.286 268.676 346.878 268.676 343.913C268.676 340.948 271.091 338.541 274.073 338.541Z" stroke="white"/>
<path d="M224.933 338.541C227.915 338.541 230.329 340.948 230.329 343.913C230.329 346.878 227.915 349.286 224.933 349.286C221.95 349.286 219.535 346.878 219.535 343.913C219.535 340.948 221.95 338.541 224.933 338.541Z" stroke="white"/>
<path d="M274.073 386.359C277.055 386.36 279.47 388.767 279.47 391.731C279.47 394.697 277.056 397.104 274.073 397.104C271.091 397.104 268.676 394.697 268.676 391.731C268.676 388.766 271.091 386.359 274.073 386.359Z" stroke="white"/>
<path d="M225.915 386.359C228.897 386.36 231.311 388.767 231.312 391.731C231.312 394.697 228.897 397.104 225.915 397.104C222.933 397.104 220.518 394.697 220.518 391.731C220.518 388.766 222.933 386.359 225.915 386.359Z" stroke="white"/>
<path d="M252.337 401.61V405.22C252.337 406.109 251.616 406.831 250.726 406.831C249.836 406.831 249.115 406.109 249.115 405.22V401.341C249.115 399.71 247.793 398.388 246.162 398.388C244.531 398.388 243.208 397.066 243.208 395.435V391.211C243.208 389.58 244.531 388.257 246.162 388.257C247.793 388.257 249.115 386.935 249.115 385.304V384.318C249.115 382.142 247.351 380.378 245.175 380.378H227.64C224.376 380.378 221.73 377.732 221.73 374.468V370.975C221.73 369.64 220.648 368.558 219.314 368.558C217.979 368.558 216.897 369.64 216.897 370.975V380.992C216.897 381.585 216.417 382.066 215.823 382.066C215.23 382.066 214.75 381.585 214.75 380.992V373.905C214.75 369.398 218.403 365.744 222.911 365.744H241.824C245.554 365.744 248.578 362.721 248.578 358.99V354.921C248.578 353.439 247.376 352.237 245.893 352.237C244.411 352.237 243.208 351.035 243.208 349.552V344.228C243.208 342.745 244.411 341.543 245.893 341.543C247.376 341.543 248.578 340.341 248.578 338.858V337.885C248.578 335.864 246.94 334.226 244.92 334.226H228.203C224.628 334.226 221.73 331.328 221.73 327.754V324.235C221.73 322.603 220.408 321.281 218.777 321.281C217.146 321.281 215.823 322.603 215.823 324.235V333.447C215.823 334.188 215.222 334.789 214.481 334.789C213.74 334.789 213.139 334.188 213.139 333.447V326.347C213.139 321.684 216.918 317.904 221.581 317.904H364.148C369.121 317.904 373.153 321.936 373.153 326.909V335.109C373.153 335.554 372.792 335.915 372.348 335.915C371.903 335.915 371.542 335.554 371.542 335.109V323.698C371.542 322.363 370.46 321.281 369.126 321.281C367.791 321.281 366.709 322.363 366.709 323.698V327.754C366.709 331.328 363.812 334.226 360.237 334.226H341.346C339.636 334.226 338.251 335.612 338.251 337.322C338.251 339.031 339.636 340.417 341.346 340.417H341.741C343.668 340.417 345.231 341.98 345.231 343.908V348.746C345.231 350.674 343.668 352.237 341.741 352.237C339.813 352.237 338.251 353.799 338.251 355.727V358.99C338.251 362.721 341.274 365.744 345.004 365.744H367.14C371.647 365.744 375.301 369.398 375.301 373.905V380.992C375.301 381.585 374.82 382.066 374.227 382.066C373.634 382.066 373.153 381.585 373.153 380.992V371.78C373.153 370.001 371.711 368.558 369.931 368.558C368.152 368.558 366.709 370.001 366.709 371.78V374.468C366.709 377.732 364.064 380.378 360.8 380.378H342.19C340.014 380.378 338.251 382.142 338.251 384.318V384.767C338.251 386.695 339.813 388.257 341.741 388.257C343.668 388.257 345.231 389.82 345.231 391.748V394.898C345.231 396.826 343.668 398.388 341.741 398.388C339.813 398.388 338.251 399.951 338.251 401.878V404.951C338.251 405.989 337.409 406.831 336.371 406.831C335.333 406.831 334.492 405.989 334.492 404.951V402.147C334.492 400.071 332.809 398.388 330.733 398.388C328.657 398.388 326.974 396.705 326.974 394.629V392.016C326.974 389.94 328.657 388.257 330.733 388.257C332.809 388.257 334.492 386.574 334.492 384.499V384.318C334.492 382.142 332.728 380.378 330.552 380.378H312.479C309.216 380.378 306.57 377.732 306.57 374.468V370.975C306.57 369.64 305.488 368.558 304.154 368.558C302.819 368.558 301.737 369.64 301.737 370.975V380.992C301.737 381.585 301.256 382.066 300.663 382.066C300.07 382.066 299.589 381.585 299.589 380.992V373.905C299.589 369.398 303.243 365.744 307.75 365.744H327.738C331.468 365.744 334.492 362.721 334.492 358.99V355.995C334.492 353.919 332.809 352.237 330.733 352.237C328.657 352.237 326.974 350.554 326.974 348.478V344.176C326.974 342.1 328.657 340.417 330.733 340.417H331.396C333.106 340.417 334.492 339.031 334.492 337.322C334.492 335.612 333.106 334.226 331.396 334.226H313.042C309.468 334.226 306.57 331.328 306.57 327.754V323.698C306.57 322.363 305.488 321.281 304.154 321.281C302.819 321.281 301.737 322.363 301.737 323.698V333.152C301.737 333.745 301.256 334.226 300.663 334.226C300.07 334.226 299.589 333.745 299.589 333.152V327.456C299.589 324.046 296.825 321.281 293.414 321.281C290.004 321.281 287.239 324.046 287.239 327.456V333.421C287.239 333.866 286.879 334.226 286.434 334.226C285.989 334.226 285.628 333.866 285.628 333.421V323.698C285.628 322.363 284.547 321.281 283.212 321.281C281.878 321.281 280.796 322.363 280.796 323.698V327.754C280.796 331.328 277.898 334.226 274.323 334.226H255.995C253.975 334.226 252.337 335.864 252.337 337.885V338.321C252.337 340.1 253.779 341.543 255.559 341.543C257.338 341.543 258.78 342.985 258.78 344.765V349.015C258.78 350.794 257.338 352.237 255.559 352.237C253.779 352.237 252.337 353.679 252.337 355.458V358.99C252.337 362.721 255.361 365.744 259.091 365.744H281.763C286.27 365.744 289.924 369.398 289.924 373.905V381.261C289.924 381.706 289.563 382.066 289.119 382.066C288.674 382.066 288.313 381.706 288.313 381.261V372.317C288.313 370.241 286.63 368.558 284.554 368.558C282.479 368.558 280.796 370.241 280.796 372.317V374.468C280.796 377.732 278.15 380.378 274.886 380.378H256.277C254.101 380.378 252.337 382.142 252.337 384.318V385.036C252.337 386.815 253.779 388.257 255.559 388.257C257.338 388.257 258.78 389.7 258.78 391.479V395.166C258.78 396.946 257.338 398.388 255.559 398.388C253.779 398.388 252.337 399.831 252.337 401.61Z" stroke="white"/>
<path d="M193.036 554.483H562.26C573.703 554.483 579.424 554.483 583.663 551.977C586.272 550.433 588.45 548.256 589.993 545.646C592.5 541.408 592.5 535.686 592.5 524.243V337.24C592.5 325.797 592.5 320.076 589.993 315.837C588.45 313.228 586.272 311.05 583.663 309.507C579.424 307 573.703 307 562.26 307H223.106C211.721 307 206.029 307 201.802 309.489C199.199 311.022 197.023 313.185 195.476 315.78C192.963 319.993 192.931 325.685 192.866 337.069L192.5 402.011" stroke="#FDFDFD" stroke-width="5"/>
<path d="M192.5 556.999V442.066" stroke="#FDFDFD" stroke-width="5"/>
<path d="M4 4H799.76C811.203 4 816.924 4 821.163 6.50664C823.772 8.05001 825.95 10.2276 827.493 12.8373C830 17.0758 830 22.7972 830 34.24V792.26C830 803.703 830 809.424 827.493 813.663C825.95 816.272 823.772 818.45 821.163 819.993C816.924 822.5 811.203 822.5 799.76 822.5H34.24C22.7972 822.5 17.0758 822.5 12.8373 819.993C10.2276 818.45 8.05001 816.272 6.50664 813.663C4 809.424 4 803.703 4 792.26V642.5M4 0V163.498M4 593V212.5" stroke="#FDFDFD" stroke-width="8"/>
</svg>
