<svg width="45" height="31" viewBox="0 0 45 31" fill="none" xmlns="http://www.w3.org/2000/svg">
<path d="M0 19.5764V10.0987C0 9.30716 0 8.91138 0.0434133 8.5234C0.116335 7.87169 0.28047 7.23347 0.531006 6.62745C0.680162 6.26665 0.871101 5.91998 1.25298 5.22665C2.10904 3.67238 2.53707 2.89524 3.09703 2.2816C4.03959 1.24868 5.26991 0.521718 6.62942 0.194432C7.43706 0 8.32428 0 10.0987 0H20.0864C22.0604 0 23.0474 0 23.9724 0.258726C24.4034 0.379272 24.8218 0.540869 25.222 0.741299C26.0808 1.17148 26.8116 1.8349 28.2732 3.16174L30.7809 5.43831C31.048 5.68073 31.1815 5.80194 31.3166 5.91282C32.4759 6.86413 33.91 7.41799 35.4078 7.49284C35.5824 7.50156 35.7627 7.50156 36.1234 7.50156C37.0041 7.50156 37.4444 7.50156 37.815 7.54114C41.0927 7.8912 43.682 10.4805 44.0321 13.7582C44.0717 14.1288 44.0717 14.5692 44.0717 15.4498V17.1181C44.0717 20.9367 41.0037 24.0468 37.1855 24.0988V25.2797C37.1855 27.9419 35.0273 30.1 32.3651 30.1H32.0457C29.5599 30.1 27.5448 28.0849 27.5448 25.5991H13.7724C13.7724 28.0849 11.7573 30.1 9.27146 30.1H8.63266C6.14686 30.1 4.13172 28.0849 4.13172 25.5991C1.64202 24.6385 0 22.245 0 19.5764Z" fill="#77F1FF"/>
<path d="M8.63265 21.0981H9.27146C11.7573 21.0981 13.7724 23.1133 13.7724 25.5991C13.7724 28.0849 11.7573 30.1 9.27146 30.1H8.63266C6.14686 30.1 4.13172 28.0849 4.13172 25.5991C4.13172 23.1133 6.14685 21.0981 8.63265 21.0981Z" fill="#267580"/>
<path d="M32.0457 21.0981H32.6712C34.0864 21.0981 35.4222 21.7651 36.2754 22.8943C36.8649 23.6745 37.1855 24.6278 37.1855 25.6057C37.1855 28.0878 35.1733 30.1 32.6912 30.1H32.0457C29.5599 30.1 27.5448 28.0849 27.5448 25.5991C27.5448 23.1133 29.5599 21.0981 32.0457 21.0981Z" fill="#267580"/>
<g opacity="0.59">
<path d="M0 19.6093V10.0987C0 9.30716 0 8.91138 0.0434133 8.5234C0.116335 7.87169 0.28047 7.23347 0.531006 6.62745C0.680162 6.26665 0.871101 5.91998 1.25298 5.22665C2.10904 3.67238 2.53707 2.89524 3.09703 2.2816C4.03959 1.24868 5.26991 0.521718 6.62942 0.194432C7.43706 0 8.32428 0 10.0987 0H20.0864C22.0604 0 23.0474 0 23.9724 0.258726C24.4034 0.379272 24.8218 0.540869 25.222 0.741299C26.0808 1.17148 26.8116 1.8349 28.2732 3.16174L30.7809 5.43831C31.048 5.68073 31.1815 5.80194 31.3166 5.91282C32.4759 6.86413 33.91 7.41799 35.4078 7.49284C35.5824 7.50156 35.7627 7.50156 36.1234 7.50156C37.0041 7.50156 37.4444 7.50156 37.815 7.54114C41.0927 7.8912 43.682 10.4805 44.0321 13.7582C44.0717 14.1288 44.0717 14.5692 44.0717 15.4498V17.1188C44.0717 20.9219 40.9886 24.005 37.1855 24.005V25.1859C37.1855 27.8481 35.0273 30.0062 32.3651 30.0062H32.0457C29.5599 30.0062 27.5448 27.9911 27.5448 25.5053H13.7724C13.7724 27.9911 11.7573 30.0062 9.27146 30.0062H8.63265C6.14686 30.0062 4.13172 27.9911 4.13172 25.5053C1.65143 24.6047 0 22.2481 0 19.6093Z" fill="black" fill-opacity="0.01"/>
</g>
</svg>
