<svg width="37" height="37" viewBox="0 0 37 37" fill="none" xmlns="http://www.w3.org/2000/svg">
<path d="M6.33977 24.1983V19.823H7.85774C7.85774 19.823 8.14611 20.796 8.57208 21.2516C8.91552 21.619 9.6436 21.966 9.6436 21.966H26.5199C26.5199 21.966 27.2682 21.6369 27.5914 21.2516C27.9744 20.7952 28.1272 19.823 28.1272 19.823H29.6451L29.4666 24.1983H19.823V29.5559C19.823 29.5559 22.171 29.9774 23.3947 30.806C24.3953 31.4835 25.5377 33.0383 25.5377 33.0383H26.7431C27.4089 33.0383 27.9486 33.578 27.9486 34.2437C27.9486 34.9095 27.4089 35.4492 26.7431 35.4492C26.0774 35.4492 25.5377 34.9095 25.5377 34.2437V33.8419C25.5377 33.8419 24.1314 32.1446 22.9482 31.431C21.7772 30.7247 19.6444 30.2702 19.6444 30.2702H18.4836V33.0383H19.3765V35.4492H16.787V33.0383H17.5906V30.2702H16.3405C16.3405 30.2702 14.2821 30.8934 13.126 31.6096C11.991 32.3127 10.5365 33.8419 10.5365 33.8419V34.2437C10.5365 34.9095 9.99682 35.4492 9.33107 35.4492C8.66532 35.4492 8.12562 34.9095 8.12562 34.2437C8.12562 33.578 8.66532 33.0383 9.33107 33.0383H9.91147H10.5365C10.5365 33.0383 11.7805 31.6375 12.7688 30.9845C14.0223 30.1564 16.3405 29.5559 16.3405 29.5559V24.1983H6.33977Z" fill="#C7DCFF"/>
<path d="M11.8262 2.25564L11.032 18.2975C11.001 18.9251 11.248 19.5346 11.7074 19.9633C12.1026 20.3322 12.6231 20.5373 13.1637 20.5373H22.9844C23.533 20.5373 24.0591 20.3194 24.447 19.9315C24.8575 19.521 25.0766 18.9569 25.0507 18.3769L24.3432 2.49731C24.3081 1.70852 23.9182 0.977891 23.2826 0.509515C22.8334 0.178545 22.2901 0 21.7321 0H14.1962C13.6215 0 13.0662 0.208628 12.6336 0.587129C12.1494 1.01083 11.858 1.613 11.8262 2.25564Z" fill="#C7DCFF"/>
<path d="M0 13.338V34.3549C0 34.4047 0 34.4297 0.000445186 34.4508C0.0230573 35.5223 0.88629 36.3855 1.9578 36.4081C1.9789 36.4086 2.00384 36.4086 2.05373 36.4086C2.10362 36.4086 2.12856 36.4086 2.14966 36.4081C3.22117 36.3855 4.0844 35.5223 4.10702 34.4508C4.10746 34.4297 4.10746 34.4047 4.10746 34.3549V17.4454C4.10746 16.174 4.10746 15.5383 4.38598 15.0673C4.55746 14.7774 4.79941 14.5354 5.08938 14.3639C5.56032 14.0854 6.19604 14.0854 7.46746 14.0854H28.8746C30.1461 14.0854 30.7818 14.0854 31.2527 14.3639C31.5427 14.5354 31.7846 14.7774 31.9561 15.0673C32.2346 15.5383 32.2346 16.174 32.2346 17.4454V34.3549C32.2346 34.4047 32.2346 34.4297 32.2351 34.4508C32.2577 35.5223 33.1209 36.3855 34.1924 36.4081C34.2135 36.4086 34.2385 36.4086 34.2884 36.4086C34.3383 36.4086 34.3632 36.4086 34.3843 36.4081C35.4558 36.3855 36.319 35.5223 36.3417 34.4508C36.3421 34.4297 36.3421 34.4047 36.3421 34.3549V13.338C36.3421 12.0665 36.3421 11.4308 36.0636 10.9599C35.8921 10.6699 35.6502 10.428 35.3602 10.2565C34.8892 9.97797 34.2535 9.97797 32.9821 9.97797H3.36C2.08857 9.97797 1.45286 9.97797 0.981917 10.2565C0.691952 10.428 0.450001 10.6699 0.278516 10.9599C0 11.4308 0 12.0665 0 13.338Z" fill="#9CC2FF"/>
<g opacity="0.2">
<path d="M6.33977 24.1983V19.823H7.85774C7.85774 19.823 8.14611 20.796 8.57208 21.2516C8.91552 21.619 9.6436 21.966 9.6436 21.966H26.5199C26.5199 21.966 27.2682 21.6369 27.5914 21.2516C27.9744 20.7952 28.1272 19.823 28.1272 19.823H29.6451L29.4666 24.1983H19.823V29.5559C19.823 29.5559 22.171 29.9774 23.3947 30.806C24.3953 31.4835 25.5377 33.0383 25.5377 33.0383H26.7431C27.4089 33.0383 27.9486 33.578 27.9486 34.2437C27.9486 34.9095 27.4089 35.4492 26.7431 35.4492C26.0774 35.4492 25.5377 34.9095 25.5377 34.2437V33.8419C25.5377 33.8419 24.1314 32.1446 22.9482 31.431C21.7772 30.7247 19.6444 30.2702 19.6444 30.2702H18.4836V33.0383H19.3765V35.4492H16.787V33.0383H17.5906V30.2702H16.3405C16.3405 30.2702 14.2821 30.8934 13.126 31.6096C11.991 32.3127 10.5365 33.8419 10.5365 33.8419V34.2437C10.5365 34.9095 9.99682 35.4492 9.33107 35.4492C8.66532 35.4492 8.12562 34.9095 8.12562 34.2437C8.12562 33.578 8.66532 33.0383 9.33107 33.0383H9.91147H10.5365C10.5365 33.0383 11.7805 31.6375 12.7688 30.9845C14.0223 30.1564 16.3405 29.5559 16.3405 29.5559V24.1983H6.33977Z" fill="black" fill-opacity="0.01"/>
<path d="M11.8262 2.25564L11.032 18.2975C11.001 18.9251 11.248 19.5346 11.7074 19.9633C12.1026 20.3322 12.6231 20.5373 13.1637 20.5373H22.9844C23.533 20.5373 24.0591 20.3194 24.447 19.9315C24.8575 19.521 25.0766 18.9569 25.0507 18.3769L24.3432 2.49731C24.3081 1.70852 23.9182 0.977891 23.2826 0.509515C22.8334 0.178545 22.2901 0 21.7321 0H14.1962C13.6215 0 13.0662 0.208628 12.6336 0.587129C12.1494 1.01083 11.858 1.613 11.8262 2.25564Z" fill="black" fill-opacity="0.01"/>
<path d="M0 13.338V34.3549C0 34.4047 0 34.4297 0.000445186 34.4508C0.0230573 35.5223 0.88629 36.3855 1.9578 36.4081C1.9789 36.4086 2.00384 36.4086 2.05373 36.4086C2.10362 36.4086 2.12856 36.4086 2.14966 36.4081C3.22117 36.3855 4.0844 35.5223 4.10702 34.4508C4.10746 34.4297 4.10746 34.4047 4.10746 34.3549V17.4454C4.10746 16.174 4.10746 15.5383 4.38598 15.0673C4.55746 14.7774 4.79941 14.5354 5.08938 14.3639C5.56032 14.0854 6.19604 14.0854 7.46746 14.0854H28.8746C30.1461 14.0854 30.7818 14.0854 31.2527 14.3639C31.5427 14.5354 31.7846 14.7774 31.9561 15.0673C32.2346 15.5383 32.2346 16.174 32.2346 17.4454V34.3549C32.2346 34.4047 32.2346 34.4297 32.2351 34.4508C32.2577 35.5223 33.1209 36.3855 34.1924 36.4081C34.2135 36.4086 34.2385 36.4086 34.2884 36.4086C34.3383 36.4086 34.3632 36.4086 34.3843 36.4081C35.4558 36.3855 36.319 35.5223 36.3417 34.4508C36.3421 34.4297 36.3421 34.4047 36.3421 34.3549V13.338C36.3421 12.0665 36.3421 11.4308 36.0636 10.9599C35.8921 10.6699 35.6502 10.428 35.3602 10.2565C34.8892 9.97797 34.2535 9.97797 32.9821 9.97797H3.36C2.08857 9.97797 1.45286 9.97797 0.981917 10.2565C0.691952 10.428 0.450001 10.6699 0.278516 10.9599C0 11.4308 0 12.0665 0 13.338Z" fill="black" fill-opacity="0.01"/>
</g>
</svg>
