<svg width="37" height="38" viewBox="0 0 37 38" fill="none" xmlns="http://www.w3.org/2000/svg">
<path d="M5.83188 27.8442V24.1183H7.41457C7.41457 24.1183 7.71523 24.9469 8.15937 25.3349C8.51744 25.6478 9.27656 25.9432 9.27656 25.9432H26.8724C26.8724 25.9432 27.6526 25.663 27.9896 25.3349C28.3889 24.9462 28.5482 24.1183 28.5482 24.1183H30.1309L29.9447 27.8442H19.8899V32.4065C19.8899 32.4065 22.338 32.7654 23.6139 33.471C24.6572 34.048 25.8483 35.3719 25.8483 35.3719H27.3355C27.9024 35.3719 28.362 35.8315 28.362 36.3985C28.362 36.9654 27.9024 37.425 27.3355 37.425H27.1051C26.411 37.425 25.8483 36.8623 25.8483 36.1681V36.0563C25.8483 36.0563 24.382 34.6109 23.1484 34.0033C21.9274 33.4018 19.7037 33.0148 19.7037 33.0148H18.4934V35.3719H19.4244V37.425H16.7245V35.3719H17.5624V33.0148H16.259C16.259 33.0148 14.1129 33.5455 12.9074 34.1553C11.724 34.7541 10.2076 36.0563 10.2076 36.0563V36.1681C10.2076 36.8622 9.64485 37.425 8.95071 37.425H8.72038C8.15346 37.425 7.69387 36.9654 7.69387 36.3985C7.69387 35.8315 8.15344 35.3719 8.72036 35.3719H9.55586H10.2076C10.2076 35.3719 11.5045 34.1791 12.535 33.6231C13.8419 32.9179 16.259 32.4065 16.259 32.4065V27.8442H5.83188Z" fill="#C7DCFF"/>
<path d="M11.5528 8.83839L10.752 22.7835C10.7141 23.4441 10.9976 24.0825 11.5132 24.4973C11.8772 24.7903 12.3305 24.95 12.7977 24.95H23.2434C23.718 24.95 24.1769 24.7795 24.5364 24.4696C24.9998 24.07 25.2525 23.4787 25.2209 22.8676L24.5091 9.09401C24.4661 8.26156 24.0225 7.50151 23.3189 7.05455C22.9064 6.79249 22.4277 6.65332 21.939 6.65332H13.867C13.3632 6.65332 12.8732 6.81742 12.471 7.12078C11.9276 7.53071 11.5918 8.1588 11.5528 8.83839Z" fill="#C7DCFF"/>
<path d="M0 18.33V35.3377C0 35.4187 0 35.4592 0.00117267 35.4934C0.0371733 36.5443 0.880692 37.3878 1.93152 37.4238C1.96575 37.4249 2.00624 37.4249 2.08721 37.4249C2.16818 37.4249 2.20866 37.4249 2.24289 37.4238C3.29372 37.3878 4.13724 36.5443 4.17324 35.4934C4.17441 35.4592 4.17441 35.4187 4.17441 35.3377V21.8196C4.17441 20.5482 4.17441 19.9125 4.45293 19.4415C4.62441 19.1515 4.86636 18.9096 5.15633 18.7381C5.62727 18.4596 6.26299 18.4596 7.53442 18.4596H29.4001C30.6715 18.4596 31.3072 18.4596 31.7781 18.7381C32.0681 18.9096 32.3101 19.1515 32.4815 19.4415C32.7601 19.9125 32.7601 20.5482 32.7601 21.8196V35.3377C32.7601 35.4187 32.7601 35.4592 32.7612 35.4934C32.7972 36.5443 33.6408 37.3878 34.6916 37.4238C34.7258 37.4249 34.7663 37.4249 34.8473 37.4249C34.9282 37.4249 34.9687 37.4249 35.0029 37.4238C36.0538 37.3878 36.8973 36.5443 36.9333 35.4934C36.9345 35.4592 36.9345 35.4187 36.9345 35.3377V18.33C36.9345 17.0585 36.9345 16.4228 36.656 15.9519C36.4845 15.6619 36.2425 15.42 35.9526 15.2485C35.4816 14.97 34.8459 14.97 33.5745 14.97H3.36C2.08857 14.97 1.45286 14.97 0.981917 15.2485C0.691952 15.42 0.450001 15.6619 0.278516 15.9519C0 16.4228 0 17.0585 0 18.33Z" fill="#9CC2FF"/>
<path d="M6.80376 0H29.1588V12.8388H19.2232V14.814H22.9491V15.8016H13.0135V14.814H16.7394V12.8388H6.80376V0Z" fill="white"/>
<g opacity="0.2">
<path d="M5.83188 27.8442V24.1183H7.41457C7.41457 24.1183 7.71523 24.9469 8.15937 25.3349C8.51744 25.6478 9.27656 25.9432 9.27656 25.9432H26.8724C26.8724 25.9432 27.6526 25.663 27.9896 25.3349C28.3889 24.9462 28.5482 24.1183 28.5482 24.1183H30.1309L29.9447 27.8442H19.8899V32.4065C19.8899 32.4065 22.338 32.7654 23.6139 33.471C24.6572 34.048 25.8483 35.3719 25.8483 35.3719H27.3355C27.9024 35.3719 28.362 35.8315 28.362 36.3985C28.362 36.9654 27.9024 37.425 27.3355 37.425H27.1051C26.411 37.425 25.8483 36.8623 25.8483 36.1681V36.0563C25.8483 36.0563 24.382 34.6109 23.1484 34.0033C21.9274 33.4018 19.7037 33.0148 19.7037 33.0148H18.4934V35.3719H19.4244V37.425H16.7245V35.3719H17.5624V33.0148H16.259C16.259 33.0148 14.1129 33.5455 12.9074 34.1553C11.724 34.7541 10.2076 36.0563 10.2076 36.0563V36.1681C10.2076 36.8622 9.64485 37.425 8.95071 37.425H8.72038C8.15346 37.425 7.69387 36.9654 7.69387 36.3985C7.69387 35.8315 8.15344 35.3719 8.72036 35.3719H9.55586H10.2076C10.2076 35.3719 11.5045 34.1791 12.535 33.6231C13.8419 32.9179 16.259 32.4065 16.259 32.4065V27.8442H5.83188Z" fill="black" fill-opacity="0.01"/>
<path d="M11.5528 8.83839L10.752 22.7835C10.7141 23.4441 10.9976 24.0825 11.5132 24.4973C11.8772 24.7903 12.3305 24.95 12.7977 24.95H23.2434C23.718 24.95 24.1769 24.7795 24.5364 24.4696C24.9998 24.07 25.2525 23.4787 25.2209 22.8676L24.5091 9.09401C24.4661 8.26156 24.0225 7.50151 23.3189 7.05455C22.9064 6.79249 22.4277 6.65332 21.939 6.65332H13.867C13.3632 6.65332 12.8732 6.81742 12.471 7.12078C11.9276 7.53071 11.5918 8.1588 11.5528 8.83839Z" fill="black" fill-opacity="0.01"/>
<path d="M0 18.33V35.3377C0 35.4187 0 35.4592 0.00117267 35.4934C0.0371733 36.5443 0.880692 37.3878 1.93152 37.4238C1.96575 37.4249 2.00624 37.4249 2.08721 37.4249C2.16818 37.4249 2.20866 37.4249 2.24289 37.4238C3.29372 37.3878 4.13724 36.5443 4.17324 35.4934C4.17441 35.4592 4.17441 35.4187 4.17441 35.3377V21.8196C4.17441 20.5482 4.17441 19.9125 4.45293 19.4415C4.62441 19.1515 4.86636 18.9096 5.15633 18.7381C5.62727 18.4596 6.26299 18.4596 7.53442 18.4596H29.4001C30.6715 18.4596 31.3072 18.4596 31.7781 18.7381C32.0681 18.9096 32.3101 19.1515 32.4815 19.4415C32.7601 19.9125 32.7601 20.5482 32.7601 21.8196V35.3377C32.7601 35.4187 32.7601 35.4592 32.7612 35.4934C32.7972 36.5443 33.6408 37.3878 34.6916 37.4238C34.7258 37.4249 34.7663 37.4249 34.8473 37.4249C34.9282 37.4249 34.9687 37.4249 35.0029 37.4238C36.0538 37.3878 36.8973 36.5443 36.9333 35.4934C36.9345 35.4592 36.9345 35.4187 36.9345 35.3377V18.33C36.9345 17.0585 36.9345 16.4228 36.656 15.9519C36.4845 15.6619 36.2425 15.42 35.9526 15.2485C35.4816 14.97 34.8459 14.97 33.5745 14.97H3.36C2.08857 14.97 1.45286 14.97 0.981917 15.2485C0.691952 15.42 0.450001 15.6619 0.278516 15.9519C0 16.4228 0 17.0585 0 18.33Z" fill="black" fill-opacity="0.01"/>
<path d="M6.80376 0H29.1588V12.8388H19.2232V14.814H22.9491V15.8016H13.0135V14.814H16.7394V12.8388H6.80376V0Z" fill="black" fill-opacity="0.01"/>
</g>
</svg>
