<svg width="44" height="44" viewBox="0 0 44 44" fill="none" xmlns="http://www.w3.org/2000/svg">
<rect x="6.97583" y="0.5" width="30.0483" height="16.4079" rx="6.5" fill="#B4D4FF" stroke="#EAEFF4"/>
<path d="M4.59354 40.077H4.32568C3.29182 40.077 2.30198 39.6586 1.5816 38.917C0.887994 38.203 0.5 37.2468 0.5 36.2513V34.2961V24.7677C0.5 23.6178 0.881438 22.5003 1.58456 21.5904L2.70846 20.1359C3.26007 19.3085 3.26517 18.2319 2.72143 17.3993L2.30949 16.7685C1.81404 16.0099 1.62057 15.0932 1.76715 14.1991L1.83704 13.7728C2.05458 12.4457 2.96633 11.337 4.22631 10.8671L4.30612 10.8374C5.38322 10.4357 6.58764 10.5755 7.54412 11.2132C8.54049 11.8774 9.13897 12.9957 9.13897 14.1932V14.4905C9.13897 15.2104 8.95109 15.9179 8.5939 16.543L7.66699 18.1651C7.43976 18.5627 7.32024 19.0128 7.32024 19.4708C7.32024 19.9074 7.42885 20.3371 7.63629 20.7212L10.4934 26.0121C10.6994 26.3936 11.098 26.6314 11.5316 26.6314C12.1832 26.6314 12.7115 27.1597 12.7115 27.8113V28.1153C12.7115 28.8058 12.2353 29.405 11.5628 29.5609L10.4705 29.8142L8.78172 34.0362L8.88818 34.4171C9.68303 37.2602 7.54567 40.077 4.59354 40.077Z" fill="#2D6FC7"/>
<path d="M39.4065 40.0121H39.6743C40.7082 40.0121 41.698 39.5936 42.4184 38.8521C43.112 38.1381 43.5 37.1818 43.5 36.1864V34.2311V24.7028C43.5 23.5528 43.1186 22.4354 42.4154 21.5254L41.2915 20.071C40.7399 19.2436 40.7348 18.1669 41.2786 17.3343L41.6905 16.7035C42.186 15.9449 42.3794 15.0283 42.2328 14.1341L42.163 13.7078C41.9454 12.3808 41.0337 11.272 39.7737 10.8022L39.6939 10.7724C38.6168 10.3708 37.4124 10.5106 36.4559 11.1482C35.4595 11.8125 34.861 12.9308 34.861 14.1282V14.4255C34.861 15.1455 35.0489 15.853 35.4061 16.478L36.333 18.1001C36.5602 18.4978 36.6798 18.9478 36.6798 19.4058C36.6798 19.8424 36.5711 20.2721 36.3637 20.6563L33.5066 25.9472C33.3006 26.3287 32.902 26.5665 32.4684 26.5665C31.8168 26.5665 31.2885 27.0947 31.2885 27.7464V28.0504C31.2885 28.7408 31.7647 29.34 32.4372 29.496L33.5295 29.7492L35.2183 33.9713L35.1118 34.3521C34.317 37.1952 36.4543 40.0121 39.4065 40.0121Z" fill="#2D6FC7"/>
<path d="M15.9592 21.8897V20.5666C15.9592 19.3226 16.5772 18.1599 17.6083 17.4639C18.2269 17.0464 18.9562 16.8233 19.7025 16.8233H20.571L19.7351 16.3178C18.5203 15.5833 17.7779 14.267 17.7779 12.8473C17.7779 11.5865 18.3643 10.3975 19.3645 9.62987L19.635 9.42226C20.242 8.95642 20.9857 8.70392 21.7509 8.70392C22.5029 8.70392 23.2346 8.94782 23.8361 9.39901L24.1657 9.64617C25.174 10.4024 25.7674 11.5892 25.7674 12.8495C25.7674 14.2656 25.0194 15.5764 23.8002 16.2968L22.9094 16.8233H24.0495C24.8305 16.8233 25.5936 17.0567 26.2409 17.4936C27.2525 18.1765 27.888 19.2918 27.9596 20.5101L28.0408 21.8897H15.9592Z" fill="#2D6FC7"/>
<path d="M5.6639 25.2024L7.86484 28.7331C8.41336 29.613 9.46022 30.0473 10.4705 29.8142M10.4705 29.8142L11.5628 29.5609C12.2353 29.405 12.7115 28.8058 12.7115 28.1153V27.8113C12.7115 27.1597 12.1832 26.6314 11.5316 26.6314C11.098 26.6314 10.6994 26.3936 10.4934 26.0121L7.63629 20.7212C7.42885 20.3371 7.32024 19.9074 7.32024 19.4708C7.32024 19.0128 7.43976 18.5627 7.66699 18.1651L8.5939 16.543C8.95109 15.9179 9.13897 15.2104 9.13897 14.4905V14.1932C9.13897 12.9957 8.54049 11.8774 7.54412 11.2132C6.58764 10.5755 5.38322 10.4357 4.30612 10.8374L4.22631 10.8671C2.96633 11.337 2.05458 12.4457 1.83704 13.7728L1.76715 14.1991C1.62057 15.0932 1.81404 16.0099 2.30949 16.7685L2.72143 17.3993C3.26517 18.2319 3.26007 19.3085 2.70846 20.1359L1.58456 21.5904C0.881438 22.5003 0.5 23.6178 0.5 24.7677V34.2961M10.4705 29.8142L8.78172 34.0362M0.5 34.2961V36.2513C0.5 37.2468 0.887994 38.203 1.5816 38.917C2.30198 39.6586 3.29182 40.077 4.32568 40.077H4.59354C7.54567 40.077 9.68303 37.2602 8.88818 34.4171L8.78172 34.0362M0.5 34.2961L8.78172 34.0362M38.3361 25.1375L36.1352 28.6681C35.5866 29.548 34.5398 29.9824 33.5295 29.7492M33.5295 29.7492L32.4372 29.496C31.7647 29.34 31.2885 28.7408 31.2885 28.0504V27.7464C31.2885 27.0947 31.8168 26.5665 32.4684 26.5665C32.902 26.5665 33.3006 26.3287 33.5066 25.9472L36.3637 20.6563C36.5711 20.2721 36.6798 19.8424 36.6798 19.4058C36.6798 18.9478 36.5602 18.4978 36.333 18.1001L35.4061 16.478C35.0489 15.853 34.861 15.1455 34.861 14.4255V14.1282C34.861 12.9308 35.4595 11.8125 36.4559 11.1482C37.4124 10.5106 38.6168 10.3708 39.6939 10.7724L39.7737 10.8022C41.0337 11.272 41.9454 12.3808 42.163 13.7078L42.2328 14.1341C42.3794 15.0283 42.186 15.9449 41.6905 16.7035L41.2786 17.3343C40.7348 18.1669 40.7399 19.2436 41.2915 20.071L42.4154 21.5254C43.1186 22.4354 43.5 23.5528 43.5 24.7028V34.2311M33.5295 29.7492L35.2183 33.9713M43.5 34.2311V36.1864C43.5 37.1818 43.112 38.1381 42.4184 38.8521C41.698 39.5936 40.7082 40.0121 39.6743 40.0121H39.4065C36.4543 40.0121 34.317 37.1952 35.1118 34.3521L35.2183 33.9713M43.5 34.2311L35.2183 33.9713M20.571 16.8233H19.7025C18.9562 16.8233 18.2269 17.0464 17.6083 17.4639C16.5772 18.1599 15.9592 19.3226 15.9592 20.5666V21.8897H28.0408L27.9596 20.5101C27.888 19.2918 27.2525 18.1765 26.2409 17.4936C25.5936 17.0567 24.8305 16.8233 24.0495 16.8233H22.9094M20.571 16.8233L19.7351 16.3178C18.5203 15.5833 17.7779 14.267 17.7779 12.8473C17.7779 11.5865 18.3643 10.3975 19.3645 9.62987L19.635 9.42226C20.242 8.95642 20.9857 8.70392 21.7509 8.70392C22.5029 8.70392 23.2346 8.94782 23.8361 9.39901L24.1657 9.64617C25.174 10.4024 25.7674 11.5892 25.7674 12.8495C25.7674 14.2656 25.0194 15.5764 23.8002 16.2968L22.9094 16.8233M20.571 16.8233H22.9094" stroke="#EAEFF4" stroke-linecap="round"/>
<path d="M6.73563 39.1676L13.2311 21.8247H30.509L37.3942 39.1676V42.7401H6.73563V39.1676Z" fill="#86BAFF"/>
<path d="M6.73563 39.1676L13.2311 21.8247H30.509L37.3942 39.1676M6.73563 39.1676H37.3942M6.73563 39.1676V42.7401H37.3942V39.1676" stroke="#7DAAE5"/>
<g opacity="0.53">
<rect x="6.47583" width="31.0483" height="17.4079" rx="7" fill="black" fill-opacity="0.01"/>
<path d="M4.59354 40.077H4.32568C3.29182 40.077 2.30198 39.6586 1.5816 38.917C0.887994 38.203 0.5 37.2468 0.5 36.2513V34.2961V24.7677C0.5 23.6178 0.881438 22.5003 1.58456 21.5904L2.70846 20.1359C3.26007 19.3085 3.26517 18.2319 2.72143 17.3993L2.30949 16.7685C1.81404 16.0099 1.62057 15.0932 1.76715 14.1991L1.83704 13.7728C2.05458 12.4457 2.96633 11.337 4.22631 10.8671L4.30612 10.8374C5.38322 10.4357 6.58764 10.5755 7.54412 11.2132C8.54049 11.8774 9.13897 12.9957 9.13897 14.1932V14.4905C9.13897 15.2104 8.95109 15.9179 8.5939 16.543L7.66699 18.1651C7.43976 18.5627 7.32024 19.0128 7.32024 19.4708C7.32024 19.9074 7.42885 20.3371 7.63629 20.7212L10.4934 26.0121C10.6994 26.3936 11.098 26.6314 11.5316 26.6314C12.1832 26.6314 12.7115 27.1597 12.7115 27.8113V28.1153C12.7115 28.8058 12.2353 29.405 11.5628 29.5609L10.4705 29.8142L8.78172 34.0362L8.88818 34.4171C9.68303 37.2602 7.54567 40.077 4.59354 40.077Z" fill="black" fill-opacity="0.01"/>
<path d="M39.4065 40.0121H39.6743C40.7082 40.0121 41.698 39.5936 42.4184 38.8521C43.112 38.1381 43.5 37.1818 43.5 36.1864V34.2311V24.7028C43.5 23.5528 43.1186 22.4354 42.4154 21.5254L41.2915 20.071C40.7399 19.2436 40.7348 18.1669 41.2786 17.3343L41.6905 16.7035C42.186 15.9449 42.3794 15.0283 42.2328 14.1341L42.163 13.7078C41.9454 12.3808 41.0337 11.272 39.7737 10.8022L39.6939 10.7724C38.6168 10.3708 37.4124 10.5106 36.4559 11.1482C35.4595 11.8125 34.861 12.9308 34.861 14.1282V14.4255C34.861 15.1455 35.0489 15.853 35.4061 16.478L36.333 18.1001C36.5602 18.4978 36.6798 18.9478 36.6798 19.4058C36.6798 19.8424 36.5711 20.2721 36.3637 20.6563L33.5066 25.9472C33.3006 26.3287 32.902 26.5665 32.4684 26.5665C31.8168 26.5665 31.2885 27.0947 31.2885 27.7464V28.0504C31.2885 28.7408 31.7647 29.34 32.4372 29.496L33.5295 29.7492L35.2183 33.9713L35.1118 34.3521C34.317 37.1952 36.4543 40.0121 39.4065 40.0121Z" fill="black" fill-opacity="0.01"/>
<path d="M15.9592 21.8897V20.5666C15.9592 19.3226 16.5772 18.1599 17.6083 17.4639C18.2269 17.0464 18.9562 16.8233 19.7025 16.8233H20.571L19.7351 16.3178C18.5203 15.5833 17.7779 14.267 17.7779 12.8473C17.7779 11.5865 18.3643 10.3975 19.3645 9.62987L19.635 9.42226C20.242 8.95642 20.9857 8.70392 21.7509 8.70392C22.5029 8.70392 23.2346 8.94782 23.8361 9.39901L24.1657 9.64617C25.174 10.4024 25.7674 11.5892 25.7674 12.8495C25.7674 14.2656 25.0194 15.5764 23.8002 16.2968L22.9094 16.8233H24.0495C24.8305 16.8233 25.5936 17.0567 26.2409 17.4936C27.2525 18.1765 27.888 19.2918 27.9596 20.5101L28.0408 21.8897H15.9592Z" fill="black" fill-opacity="0.01"/>
<path d="M6.73563 39.1676L13.2311 21.8247H30.509L37.3942 39.1676V42.7401H6.73563V39.1676Z" fill="black" fill-opacity="0.01"/>
</g>
</svg>
