<svg width="43" height="43" viewBox="0 0 43 43" fill="none" xmlns="http://www.w3.org/2000/svg">
<g opacity="0.53">
<rect x="5.97583" width="31.0483" height="17.4079" rx="7" fill="black" fill-opacity="0.01"/>
<path d="M4.09354 40.077H3.82568C2.79182 40.077 1.80198 39.6586 1.0816 38.917C0.387994 38.203 0 37.2468 0 36.2513V34.2961V24.7677C0 23.6178 0.381438 22.5003 1.08456 21.5904L2.20846 20.1359C2.76007 19.3085 2.76517 18.2319 2.22143 17.3993L1.80949 16.7685C1.31404 16.0099 1.12057 15.0932 1.26715 14.1991L1.33704 13.7728C1.55458 12.4457 2.46633 11.337 3.72631 10.8671L3.80612 10.8374C4.88322 10.4357 6.08764 10.5755 7.04412 11.2132C8.04049 11.8774 8.63897 12.9957 8.63897 14.1932V14.4905C8.63897 15.2104 8.45109 15.9179 8.0939 16.543L7.16699 18.1651C6.93976 18.5627 6.82024 19.0128 6.82024 19.4708C6.82024 19.9074 6.92885 20.3371 7.13629 20.7212L9.99339 26.0121C10.1994 26.3936 10.598 26.6314 11.0316 26.6314C11.6832 26.6314 12.2115 27.1597 12.2115 27.8113V28.1153C12.2115 28.8058 11.7353 29.405 11.0628 29.5609L9.97054 29.8142L8.28172 34.0362L8.38818 34.4171C9.18303 37.2602 7.04567 40.077 4.09354 40.077Z" fill="black" fill-opacity="0.01"/>
<path d="M38.9065 40.0121H39.1743C40.2082 40.0121 41.198 39.5936 41.9184 38.8521C42.612 38.1381 43 37.1818 43 36.1864V34.2311V24.7028C43 23.5528 42.6186 22.4354 41.9154 21.5254L40.7915 20.071C40.2399 19.2436 40.2348 18.1669 40.7786 17.3343L41.1905 16.7035C41.686 15.9449 41.8794 15.0283 41.7328 14.1341L41.663 13.7078C41.4454 12.3808 40.5337 11.272 39.2737 10.8022L39.1939 10.7724C38.1168 10.3708 36.9124 10.5106 35.9559 11.1482C34.9595 11.8125 34.361 12.9308 34.361 14.1282V14.4255C34.361 15.1455 34.5489 15.853 34.9061 16.478L35.833 18.1001C36.0602 18.4978 36.1798 18.9478 36.1798 19.4058C36.1798 19.8424 36.0711 20.2721 35.8637 20.6563L33.0066 25.9472C32.8006 26.3287 32.402 26.5665 31.9684 26.5665C31.3168 26.5665 30.7885 27.0947 30.7885 27.7464V28.0504C30.7885 28.7408 31.2647 29.34 31.9372 29.496L33.0295 29.7492L34.7183 33.9713L34.6118 34.3521C33.817 37.1952 35.9543 40.0121 38.9065 40.0121Z" fill="black" fill-opacity="0.01"/>
<path d="M15.4592 21.8897V20.5666C15.4592 19.3226 16.0772 18.1599 17.1083 17.4639C17.7269 17.0464 18.4562 16.8233 19.2025 16.8233H20.071L19.2351 16.3178C18.0203 15.5833 17.2779 14.267 17.2779 12.8473C17.2779 11.5865 17.8643 10.3975 18.8645 9.62987L19.135 9.42226C19.742 8.95642 20.4857 8.70392 21.2509 8.70392C22.0029 8.70392 22.7346 8.94782 23.3361 9.39901L23.6657 9.64617C24.674 10.4024 25.2674 11.5892 25.2674 12.8495C25.2674 14.2656 24.5194 15.5764 23.3002 16.2968L22.4094 16.8233H23.5495C24.3305 16.8233 25.0936 17.0567 25.7409 17.4936C26.7525 18.1765 27.388 19.2918 27.4596 20.5101L27.5408 21.8897H15.4592Z" fill="black" fill-opacity="0.01"/>
<path d="M6.23563 39.1676L12.7311 21.8247H30.009L36.8942 39.1676V42.7401H6.23563V39.1676Z" fill="black" fill-opacity="0.01"/>
</g>
</svg>
